<svg xmlns="http://www.w3.org/2000/svg" xmlns:xlink="http://www.w3.org/1999/xlink" width="1080" zoomAndPan="magnify" viewBox="0 0 810 809.999993" height="1080" preserveAspectRatio="xMidYMid meet" version="1.0"><defs><clipPath id="8335c75cce"><path d="M 464 337 L 668.285156 337 L 668.285156 578 L 464 578 Z M 464 337 " clip-rule="nonzero"/></clipPath></defs><path fill="#fbac9f" d="M 653.75 559.46875 C 653.75 559.46875 648.320312 673.203125 651.5 687.335938 C 654.679688 701.46875 651.515625 689.285156 651.515625 689.285156 L 580.722656 689.144531 L 577.789062 664.019531 L 575.542969 575.007812 C 575.542969 575.007812 643.585938 564.328125 653.75 559.46875 Z M 653.75 559.46875 " fill-opacity="1" fill-rule="nonzero"/><path fill="#93b4be" d="M 371.269531 390.148438 C 371.269531 390.148438 364.359375 396.410156 349.5625 396.714844 C 334.769531 397.019531 309.859375 389.921875 288.480469 396.753906 C 267.101562 403.582031 238.941406 425.140625 233.144531 443.917969 C 227.351562 462.695312 206.464844 495.90625 190.046875 505.660156 C 190.046875 505.660156 227.222656 555.902344 280.515625 555.121094 C 280.515625 555.121094 278.097656 657.402344 267.261719 689.144531 L 580.722656 689.144531 L 576.761719 576.800781 C 576.761719 576.800781 661.265625 565.753906 667.078125 555.121094 C 667.078125 555.121094 644.046875 478.566406 637.769531 464.722656 C 631.488281 450.878906 612.039062 409.777344 581.734375 402.539062 C 551.425781 395.296875 523 394.269531 523 394.269531 C 523 394.269531 491.566406 402.925781 482.898438 384.675781 L 421.210938 447.582031 Z M 371.269531 390.148438 " fill-opacity="1" fill-rule="nonzero"/><path fill="#fbac9f" d="M 321.78125 233.859375 C 321.78125 233.859375 310.597656 221.957031 303.78125 225.296875 C 296.960938 228.640625 286.300781 235.925781 292.523438 257.867188 C 298.746094 279.808594 319.761719 291.246094 332.722656 283.460938 C 332.722656 283.460938 349.960938 334.632812 381.773438 355.507812 L 377.203125 378.039062 C 377.203125 378.039062 367.328125 387.253906 371.898438 390.050781 C 377.136719 393.25 391.824219 412.664062 391.824219 412.664062 L 419.722656 445.234375 L 467.375 395.585938 C 467.375 395.585938 488.753906 384.714844 475.542969 369.101562 L 466.503906 338.417969 C 466.503906 338.417969 490.238281 300.222656 489.617188 262.421875 C 489.617188 262.421875 513.679688 269.332031 520.800781 245.003906 C 527.925781 220.679688 521.628906 200.085938 509.007812 200.035156 C 509.007812 200.035156 489.746094 198.914062 489.613281 212.753906 C 489.613281 212.753906 465.082031 217.570312 449.839844 222.824219 C 432.074219 228.945312 358.773438 226.296875 331.039062 204.125 C 331.039062 204.125 334.054688 221.535156 321.78125 233.859375 Z M 321.78125 233.859375 " fill-opacity="1" fill-rule="nonzero"/><path fill="#000000" d="M 290.644531 236.550781 C 290.644531 236.550781 301.136719 224.832031 308.039062 228.117188 C 314.9375 231.402344 321.78125 237.484375 321.78125 237.484375 C 321.78125 237.484375 335.964844 224.175781 331.039062 207.75 C 331.039062 207.75 402.417969 248.566406 488.464844 214.359375 C 488.464844 214.359375 495.425781 203.957031 501.230469 203.640625 C 507.03125 203.320312 509.007812 203.660156 509.007812 203.660156 C 509.007812 203.660156 501.738281 172.214844 498.28125 169.316406 C 494.824219 166.417969 480.230469 121.28125 445.546875 121.027344 C 445.546875 121.027344 417.554688 113.730469 409.53125 115.046875 C 401.511719 116.359375 344.410156 109.921875 320.183594 170.628906 C 320.183594 170.628906 292.832031 170.808594 292.59375 178.335938 C 292.355469 185.863281 287.050781 220.679688 290.644531 236.550781 Z M 290.644531 236.550781 " fill-opacity="1" fill-rule="nonzero"/><path fill="#000000" d="M 412.960938 367.421875 C 346.300781 367.421875 328.589844 267.929688 328.410156 266.878906 C 328.226562 265.804688 328.949219 264.789062 330.023438 264.605469 C 331.097656 264.425781 332.113281 265.140625 332.296875 266.21875 C 332.480469 267.28125 351.261719 372.410156 422.066406 362.847656 C 493.015625 353.191406 487.515625 247.523438 487.453125 246.457031 C 487.386719 245.371094 488.214844 244.4375 489.300781 244.371094 C 490.441406 244.257812 491.320312 245.136719 491.386719 246.21875 C 491.453125 247.324219 497.132812 356.613281 422.597656 366.75 C 419.28125 367.207031 416.070312 367.421875 412.960938 367.421875 Z M 412.960938 367.421875 " fill-opacity="1" fill-rule="nonzero"/><path fill="#000000" d="M 322.257812 288.789062 C 312.019531 288.789062 302.828125 283.058594 296.097656 272.148438 C 286.820312 257.113281 285.871094 237.324219 294.0625 229.800781 C 298.511719 225.722656 303.253906 223.917969 308.160156 224.433594 C 314.835938 225.136719 319.886719 229.988281 322.105469 232.523438 C 324.855469 230.1875 330.84375 222.898438 328.402344 205.03125 C 328.292969 204.261719 328.65625 203.5 329.316406 203.089844 C 329.984375 202.679688 330.824219 202.703125 331.464844 203.136719 C 332.09375 203.558594 394.367188 245.003906 488.453125 212.253906 C 489.589844 209.753906 493.355469 202.636719 500.371094 200.015625 C 505.007812 198.277344 510.042969 198.851562 515.363281 201.6875 C 525.179688 206.921875 529.210938 226.316406 523.988281 243.195312 C 518.871094 259.746094 507.023438 268.242188 491.523438 266.550781 C 490.441406 266.429688 489.660156 265.457031 489.777344 264.375 C 489.898438 263.292969 490.875 262.519531 491.953125 262.628906 C 511.039062 264.742188 518.089844 248.929688 520.222656 242.027344 C 524.847656 227.078125 521.648438 209.503906 513.507812 205.164062 C 509.226562 202.882812 505.269531 202.386719 501.753906 203.707031 C 495.011719 206.222656 491.796875 214.445312 491.765625 214.53125 C 491.554688 215.070312 491.125 215.492188 490.578125 215.6875 C 440.179688 233.425781 399.054688 229.980469 373.433594 223.972656 C 352.816406 219.144531 338.863281 212.070312 332.742188 208.546875 C 334.417969 230.625 323.140625 236.6875 322.632812 236.949219 C 321.746094 237.394531 320.695312 237.136719 320.125 236.339844 C 320.078125 236.269531 314.855469 229.089844 307.726562 228.351562 C 304.007812 227.957031 300.304688 229.429688 296.726562 232.703125 C 289.933594 238.945312 291.234375 256.757812 299.449219 270.078125 C 303.242188 276.21875 314.007812 289.789062 331.972656 282.957031 C 332.988281 282.578125 335.542969 283.730469 334.519531 284.097656 C 330.320312 285.613281 334.394531 286.253906 333.375 286.644531 C 329.578125 288.082031 325.851562 288.789062 322.257812 288.789062 Z M 322.257812 288.789062 " fill-opacity="1" fill-rule="nonzero"/><path fill="#000000" d="M 579.761719 689.410156 L 266.304688 689.410156 C 265.722656 689.410156 265.171875 689.152344 264.796875 688.710938 C 264.421875 688.261719 264.265625 687.679688 264.359375 687.105469 C 264.480469 686.421875 276.121094 618.742188 277.089844 575.054688 C 278.074219 530.699219 279.121094 491.277344 279.121094 491.277344 C 279.148438 490.207031 280.023438 489.359375 281.089844 489.359375 C 281.105469 489.359375 281.125 489.359375 281.144531 489.359375 C 282.230469 489.390625 283.089844 490.296875 283.0625 491.386719 C 283.0625 491.386719 282.019531 530.800781 281.03125 575.136719 C 280.15625 614.539062 270.6875 673.171875 268.636719 685.46875 L 577.699219 685.46875 C 577.007812 670.351562 572.808594 575.5625 572.863281 503.15625 C 572.863281 502.066406 573.746094 501.1875 574.835938 501.1875 C 575.925781 501.1875 576.804688 502.070312 576.804688 503.15625 C 576.746094 581.570312 581.679688 686.296875 581.730469 687.347656 C 581.757812 687.886719 581.5625 688.410156 581.191406 688.796875 C 580.816406 689.191406 580.300781 689.410156 579.761719 689.410156 Z M 579.761719 689.410156 " fill-opacity="1" fill-rule="nonzero"/><g clip-path="url(#8335c75cce)"><path fill="#000000" d="M 575.796875 577.066406 C 574.824219 577.066406 573.976562 576.347656 573.84375 575.355469 C 573.703125 574.277344 574.464844 573.28125 575.542969 573.140625 C 644.59375 564.039062 660.742188 555.085938 663.917969 552.738281 C 660.9375 540.917969 635.230469 441.640625 608.101562 419.945312 C 582.261719 399.277344 532.804688 397.804688 506.238281 397.011719 C 503.050781 396.914062 500.222656 396.832031 497.859375 396.722656 C 474.867188 395.679688 464.921875 342.375 464.511719 340.105469 C 464.320312 339.035156 465.027344 338.011719 466.097656 337.816406 C 467.136719 337.640625 468.195312 338.328125 468.390625 339.402344 C 471.046875 353.996094 481.546875 392.039062 498.035156 392.789062 C 500.386719 392.894531 503.1875 392.976562 506.359375 393.070312 C 533.382812 393.878906 583.695312 395.375 610.566406 416.867188 C 640.320312 440.664062 666.917969 548.371094 668.035156 552.945312 C 668.175781 553.519531 668.054688 554.121094 667.703125 554.59375 C 666.824219 555.773438 656.808594 566.40625 576.058594 577.050781 C 575.96875 577.0625 575.886719 577.066406 575.796875 577.066406 Z M 575.796875 577.066406 " fill-opacity="1" fill-rule="nonzero"/></g><path fill="#000000" d="M 649.546875 689.410156 L 579.761719 689.410156 C 578.671875 689.410156 577.792969 688.527344 577.792969 687.4375 C 577.792969 686.351562 578.671875 685.46875 579.761719 685.46875 L 647.5625 685.46875 C 647.179688 633.726562 651.617188 560.199219 651.664062 559.453125 C 651.722656 558.367188 652.640625 557.480469 653.75 557.605469 C 654.835938 557.667969 655.664062 558.605469 655.597656 559.691406 C 655.550781 560.445312 651.011719 635.738281 651.519531 687.417969 C 651.523438 687.949219 651.320312 688.453125 650.949219 688.824219 C 650.582031 689.199219 650.074219 689.410156 649.546875 689.410156 Z M 649.546875 689.410156 " fill-opacity="1" fill-rule="nonzero"/><path fill="#000000" d="M 374.570312 263.539062 C 374.601562 264.117188 374.601562 264.691406 374.578125 265.265625 C 374.550781 265.835938 374.5 266.390625 374.417969 266.933594 C 374.339844 267.472656 374.234375 267.988281 374.101562 268.476562 C 373.972656 268.96875 373.816406 269.421875 373.640625 269.84375 C 373.464844 270.261719 373.265625 270.640625 373.050781 270.972656 C 372.832031 271.308594 372.601562 271.589844 372.355469 271.828125 C 372.105469 272.0625 371.847656 272.242188 371.578125 272.371094 C 371.3125 272.496094 371.035156 272.566406 370.757812 272.582031 C 370.476562 272.597656 370.195312 272.554688 369.917969 272.453125 C 369.636719 272.355469 369.359375 272.203125 369.089844 271.992188 C 368.820312 271.785156 368.5625 271.523438 368.3125 271.214844 C 368.0625 270.90625 367.828125 270.550781 367.609375 270.148438 C 367.390625 269.75 367.191406 269.3125 367.011719 268.839844 C 366.832031 268.367188 366.671875 267.863281 366.539062 267.335938 C 366.402344 266.804688 366.296875 266.257812 366.210938 265.691406 C 366.128906 265.125 366.070312 264.550781 366.042969 263.972656 C 366.011719 263.394531 366.011719 262.816406 366.035156 262.246094 C 366.0625 261.675781 366.113281 261.121094 366.195312 260.578125 C 366.273438 260.039062 366.378906 259.523438 366.511719 259.03125 C 366.640625 258.542969 366.792969 258.089844 366.972656 257.667969 C 367.148438 257.25 367.347656 256.871094 367.5625 256.539062 C 367.777344 256.203125 368.011719 255.917969 368.257812 255.683594 C 368.503906 255.449219 368.761719 255.269531 369.03125 255.140625 C 369.300781 255.015625 369.574219 254.945312 369.855469 254.929688 C 370.136719 254.914062 370.414062 254.957031 370.695312 255.054688 C 370.976562 255.15625 371.25 255.308594 371.523438 255.519531 C 371.792969 255.726562 372.050781 255.984375 372.300781 256.296875 C 372.550781 256.605469 372.785156 256.960938 373.003906 257.359375 C 373.222656 257.761719 373.421875 258.195312 373.601562 258.671875 C 373.78125 259.144531 373.9375 259.648438 374.074219 260.175781 C 374.207031 260.707031 374.316406 261.253906 374.402344 261.820312 C 374.484375 262.386719 374.542969 262.957031 374.570312 263.539062 Z M 374.570312 263.539062 " fill-opacity="1" fill-rule="nonzero"/><path fill="#000000" d="M 449.816406 254.707031 C 449.847656 255.289062 449.847656 255.863281 449.820312 256.433594 C 449.796875 257.003906 449.742188 257.5625 449.664062 258.101562 C 449.585938 258.644531 449.480469 259.160156 449.347656 259.648438 C 449.21875 260.136719 449.0625 260.59375 448.886719 261.011719 C 448.707031 261.433594 448.511719 261.808594 448.296875 262.144531 C 448.078125 262.476562 447.847656 262.761719 447.601562 262.996094 C 447.351562 263.230469 447.09375 263.414062 446.824219 263.539062 C 446.558594 263.667969 446.28125 263.738281 446.003906 263.753906 C 445.722656 263.765625 445.441406 263.722656 445.160156 263.625 C 444.882812 263.527344 444.605469 263.371094 444.335938 263.164062 C 444.066406 262.953125 443.804688 262.695312 443.558594 262.386719 C 443.308594 262.074219 443.074219 261.71875 442.855469 261.320312 C 442.636719 260.921875 442.4375 260.484375 442.257812 260.011719 C 442.074219 259.535156 441.917969 259.035156 441.785156 258.503906 C 441.648438 257.972656 441.539062 257.425781 441.457031 256.859375 C 441.375 256.296875 441.316406 255.722656 441.285156 255.144531 C 441.257812 254.5625 441.253906 253.988281 441.28125 253.417969 C 441.308594 252.847656 441.359375 252.289062 441.4375 251.75 C 441.519531 251.207031 441.625 250.691406 441.753906 250.203125 C 441.886719 249.714844 442.039062 249.257812 442.21875 248.839844 C 442.394531 248.417969 442.589844 248.042969 442.808594 247.707031 C 443.023438 247.375 443.257812 247.089844 443.503906 246.855469 C 443.75 246.621094 444.007812 246.4375 444.277344 246.3125 C 444.546875 246.183594 444.820312 246.113281 445.101562 246.101562 C 445.382812 246.085938 445.660156 246.128906 445.941406 246.226562 C 446.222656 246.324219 446.496094 246.480469 446.765625 246.6875 C 447.039062 246.898438 447.296875 247.15625 447.546875 247.464844 C 447.796875 247.777344 448.03125 248.132812 448.25 248.53125 C 448.46875 248.929688 448.667969 249.367188 448.847656 249.839844 C 449.027344 250.316406 449.183594 250.816406 449.320312 251.347656 C 449.453125 251.878906 449.5625 252.425781 449.644531 252.992188 C 449.730469 253.554688 449.785156 254.128906 449.816406 254.707031 Z M 449.816406 254.707031 " fill-opacity="1" fill-rule="nonzero"/><path fill="#000000" d="M 411.628906 297.71875 C 410.222656 297.71875 408.792969 297.492188 407.414062 297.023438 C 402.597656 295.375 399.550781 291.25 399.054688 285.714844 C 398.730469 282.085938 399.621094 279.0625 401.695312 276.726562 C 405.492188 272.460938 411.867188 272.238281 412.136719 272.230469 C 412.15625 272.230469 412.175781 272.230469 412.191406 272.230469 C 413.253906 272.230469 414.128906 273.074219 414.160156 274.140625 C 414.191406 275.226562 413.339844 276.132812 412.253906 276.171875 C 412.203125 276.171875 407.273438 276.375 404.628906 279.359375 C 403.292969 280.875 402.753906 282.835938 402.980469 285.363281 C 403.460938 290.726562 406.761719 292.632812 408.691406 293.292969 C 411.628906 294.296875 414.988281 293.714844 416.660156 291.914062 C 417.410156 291.113281 418.65625 291.070312 419.445312 291.808594 C 420.246094 292.546875 420.292969 293.796875 419.550781 294.59375 C 417.671875 296.617188 414.726562 297.71875 411.628906 297.71875 Z M 411.628906 297.71875 " fill-opacity="1" fill-rule="nonzero"/><path fill="#000000" d="M 409.355469 322.625 C 395.695312 322.625 388.421875 315.007812 388.074219 314.636719 C 387.335938 313.84375 387.382812 312.601562 388.171875 311.859375 C 388.96875 311.113281 390.207031 311.152344 390.957031 311.945312 C 391.292969 312.304688 399.394531 320.660156 414.84375 318.242188 C 430.285156 315.824219 434.941406 303.855469 434.988281 303.730469 C 435.375 302.710938 436.507812 302.183594 437.527344 302.582031 C 438.546875 302.960938 439.0625 304.097656 438.679688 305.117188 C 438.460938 305.699219 433.144531 319.363281 415.453125 322.140625 C 413.300781 322.476562 411.265625 322.625 409.355469 322.625 Z M 409.355469 322.625 " fill-opacity="1" fill-rule="nonzero"/><path fill="#000000" d="M 318.21875 273.214844 C 318.058594 273.214844 317.898438 273.199219 317.734375 273.15625 C 302.464844 269.3125 303.386719 240.113281 303.429688 238.875 C 303.476562 237.789062 304.46875 236.960938 305.476562 236.976562 C 306.566406 237.019531 307.414062 237.9375 307.375 239.023438 C 307.09375 246.589844 308.582031 266.789062 318.699219 269.335938 C 319.753906 269.601562 320.394531 270.671875 320.125 271.726562 C 319.902344 272.621094 319.097656 273.214844 318.21875 273.214844 Z M 318.21875 273.214844 " fill-opacity="1" fill-rule="nonzero"/><path fill="#000000" d="M 503.203125 248.308594 C 502.746094 248.308594 502.289062 248.152344 501.914062 247.828125 C 501.089844 247.117188 501 245.875 501.714844 245.050781 C 511.070312 234.242188 505.121094 214.875 505.0625 214.679688 C 504.738281 213.640625 505.3125 212.535156 506.351562 212.210938 C 507.402344 211.894531 508.503906 212.460938 508.820312 213.496094 C 509.097656 214.378906 515.476562 235.175781 504.695312 247.628906 C 504.304688 248.078125 503.753906 248.308594 503.203125 248.308594 Z M 503.203125 248.308594 " fill-opacity="1" fill-rule="nonzero"/><path fill="#000000" d="M 292.085938 238.230469 C 291.273438 238.230469 290.511719 237.71875 290.226562 236.914062 C 288.011719 230.589844 286.285156 200.066406 288.449219 183.488281 C 290.535156 167.507812 313.613281 167.089844 319.804688 167.257812 C 323.078125 159.378906 341.527344 120.351562 386.675781 116.738281 L 391.621094 116.335938 C 439.726562 112.375 489.433594 108.292969 510.878906 200.566406 C 511.125 201.628906 510.460938 202.6875 509.402344 202.933594 C 508.332031 203.183594 507.28125 202.515625 507.035156 201.457031 C 486.355469 112.488281 440.496094 116.273438 391.949219 120.261719 L 386.988281 120.664062 C 339.527344 124.460938 323.140625 169.488281 322.980469 169.941406 C 322.683594 170.777344 321.871094 171.328125 320.984375 171.253906 C 320.722656 171.234375 294.234375 169.601562 292.359375 183.996094 C 290.175781 200.730469 292.089844 230.3125 293.949219 235.601562 C 294.308594 236.632812 293.765625 237.753906 292.742188 238.117188 C 292.523438 238.195312 292.304688 238.230469 292.085938 238.230469 Z M 292.085938 238.230469 " fill-opacity="1" fill-rule="nonzero"/><path fill="#000000" d="M 418.105469 447.847656 C 417.890625 447.847656 417.675781 447.8125 417.460938 447.738281 C 417.109375 447.625 382.464844 435.8125 371.746094 447.226562 C 371.363281 447.632812 370.75 447.847656 370.28125 447.847656 C 369.726562 447.839844 369.199219 447.597656 368.835938 447.1875 L 324.226562 396.863281 C 323.503906 396.046875 323.582031 394.796875 324.394531 394.078125 C 325.210938 393.351562 326.453125 393.429688 327.175781 394.242188 L 370.457031 443.070312 C 380.671875 434.957031 401.765625 439.214844 412.394531 442.097656 L 368.792969 389.707031 C 368.097656 388.871094 368.210938 387.625 369.050781 386.929688 C 369.882812 386.242188 371.128906 386.347656 371.828125 387.1875 L 419.621094 444.617188 C 420.1875 445.296875 420.230469 446.269531 419.726562 446.996094 C 419.351562 447.539062 418.742188 447.847656 418.105469 447.847656 Z M 418.105469 447.847656 " fill-opacity="1" fill-rule="nonzero"/><path fill="#000000" d="M 420.253906 447.847656 C 419.589844 447.847656 418.957031 447.511719 418.585938 446.933594 C 418.097656 446.15625 418.207031 445.148438 418.84375 444.5 L 480.527344 381.589844 C 481.300781 380.8125 482.546875 380.804688 483.316406 381.558594 C 484.09375 382.320312 484.109375 383.570312 483.347656 384.347656 L 426.992188 441.824219 C 437.960938 438.9375 458.242188 435.164062 468.074219 443.214844 L 523 394.269531 C 523.8125 393.542969 525.058594 393.617188 525.785156 394.429688 C 526.507812 395.242188 526.4375 396.488281 525.625 397.210938 L 469.359375 447.347656 C 468.5625 448.0625 467.335938 448.007812 466.609375 447.226562 C 455.878906 435.808594 421.25 447.617188 420.898438 447.738281 C 420.683594 447.8125 420.46875 447.847656 420.253906 447.847656 Z M 420.253906 447.847656 " fill-opacity="1" fill-rule="nonzero"/><path fill="#000000" d="M 419.882812 500.011719 C 415.097656 500.011719 411.207031 496.117188 411.207031 491.332031 C 411.207031 486.546875 415.097656 482.65625 419.882812 482.65625 C 424.671875 482.65625 428.5625 486.546875 428.5625 491.332031 C 428.5625 496.117188 424.671875 500.011719 419.882812 500.011719 Z M 419.882812 486.597656 C 417.273438 486.597656 415.148438 488.722656 415.148438 491.332031 C 415.148438 493.945312 417.273438 496.070312 419.882812 496.070312 C 422.496094 496.070312 424.621094 493.945312 424.621094 491.332031 C 424.621094 488.722656 422.496094 486.597656 419.882812 486.597656 Z M 419.882812 486.597656 " fill-opacity="1" fill-rule="nonzero"/><path fill="#000000" d="M 418.105469 555.566406 C 413.320312 555.566406 409.421875 551.671875 409.421875 546.886719 C 409.421875 542.101562 413.320312 538.210938 418.105469 538.210938 C 422.890625 538.210938 426.785156 542.101562 426.785156 546.886719 C 426.785156 551.671875 422.890625 555.566406 418.105469 555.566406 Z M 418.105469 542.152344 C 415.492188 542.152344 413.367188 544.277344 413.367188 546.886719 C 413.367188 549.5 415.492188 551.625 418.105469 551.625 C 420.714844 551.625 422.839844 549.5 422.839844 546.886719 C 422.839844 544.277344 420.714844 542.152344 418.105469 542.152344 Z M 418.105469 542.152344 " fill-opacity="1" fill-rule="nonzero"/><path fill="#000000" d="M 419.882812 604.773438 C 415.097656 604.773438 411.207031 600.878906 411.207031 596.09375 C 411.207031 591.308594 415.097656 587.414062 419.882812 587.414062 C 424.671875 587.414062 428.5625 591.308594 428.5625 596.09375 C 428.5625 600.878906 424.671875 604.773438 419.882812 604.773438 Z M 419.882812 591.355469 C 417.273438 591.355469 415.148438 593.480469 415.148438 596.09375 C 415.148438 598.703125 417.273438 600.828125 419.882812 600.828125 C 422.496094 600.828125 424.621094 598.703125 424.621094 596.09375 C 424.621094 593.480469 422.496094 591.355469 419.882812 591.355469 Z M 419.882812 591.355469 " fill-opacity="1" fill-rule="nonzero"/><path fill="#000000" d="M 419.882812 653.949219 C 415.097656 653.949219 411.207031 650.054688 411.207031 645.269531 C 411.207031 640.484375 415.097656 636.589844 419.882812 636.589844 C 424.671875 636.589844 428.5625 640.484375 428.5625 645.269531 C 428.5625 650.054688 424.671875 653.949219 419.882812 653.949219 Z M 419.882812 640.535156 C 417.273438 640.535156 415.148438 642.660156 415.148438 645.269531 C 415.148438 647.882812 417.273438 650.007812 419.882812 650.007812 C 422.496094 650.007812 424.621094 647.882812 424.621094 645.269531 C 424.621094 642.660156 422.496094 640.535156 419.882812 640.535156 Z M 419.882812 640.535156 " fill-opacity="1" fill-rule="nonzero"/><path fill="#000000" d="M 360.820312 294.386719 C 357.867188 294.386719 355.023438 293.375 352.6875 291.480469 C 349.992188 289.300781 348.308594 286.207031 347.949219 282.777344 L 344.480469 249.691406 C 344.117188 246.265625 345.125 242.894531 347.308594 240.199219 C 349.492188 237.503906 352.582031 235.824219 356.011719 235.464844 L 375.398438 233.433594 C 382.460938 232.664062 388.882812 237.859375 389.632812 244.964844 L 393.101562 278.050781 C 393.84375 285.152344 388.667969 291.535156 381.566406 292.277344 L 362.179688 294.3125 C 361.726562 294.363281 361.273438 294.386719 360.820312 294.386719 Z M 376.75 237.300781 C 376.441406 237.300781 376.128906 237.320312 375.808594 237.351562 L 356.421875 239.382812 C 354.042969 239.632812 351.894531 240.804688 350.371094 242.679688 C 348.851562 244.558594 348.148438 246.902344 348.402344 249.28125 L 351.871094 282.371094 C 352.121094 284.75 353.289062 286.902344 355.164062 288.421875 C 357.042969 289.9375 359.386719 290.621094 361.773438 290.394531 L 381.15625 288.359375 C 386.097656 287.84375 389.695312 283.402344 389.179688 278.460938 L 385.710938 245.375 C 385.226562 240.75 381.304688 237.300781 376.75 237.300781 Z M 376.75 237.300781 " fill-opacity="1" fill-rule="nonzero"/><path fill="#000000" d="M 437.589844 285.613281 C 431.042969 285.613281 425.40625 280.652344 424.710938 274.003906 L 421.242188 240.917969 C 420.882812 237.492188 421.886719 234.117188 424.070312 231.421875 C 426.253906 228.730469 429.34375 227.050781 432.777344 226.691406 L 452.160156 224.660156 C 459.203125 223.871094 465.652344 229.082031 466.394531 236.183594 L 469.859375 269.277344 C 470.222656 272.703125 469.214844 276.078125 467.03125 278.769531 C 464.851562 281.464844 461.757812 283.148438 458.332031 283.507812 C 458.328125 283.507812 458.328125 283.507812 458.328125 283.507812 L 438.945312 285.539062 C 438.488281 285.589844 438.035156 285.613281 437.589844 285.613281 Z M 453.519531 228.527344 C 453.203125 228.527344 452.886719 228.546875 452.566406 228.578125 L 433.183594 230.609375 C 430.804688 230.859375 428.65625 232.03125 427.132812 233.90625 C 425.613281 235.78125 424.914062 238.128906 425.164062 240.511719 L 428.632812 273.597656 C 429.152344 278.535156 433.546875 282.09375 438.535156 281.621094 L 457.917969 279.585938 L 457.914062 279.585938 C 460.296875 279.335938 462.445312 278.167969 463.96875 276.289062 C 465.488281 274.414062 466.191406 272.070312 465.941406 269.691406 L 462.472656 236.597656 C 461.988281 231.976562 458.066406 228.527344 453.519531 228.527344 Z M 453.519531 228.527344 " fill-opacity="1" fill-rule="nonzero"/><path fill="#000000" d="M 389.523438 262.410156 C 388.902344 262.410156 388.292969 262.121094 387.910156 261.574219 C 387.28125 260.6875 387.496094 259.457031 388.382812 258.835938 C 388.996094 258.390625 403.742188 248.242188 425.511719 255.171875 C 426.550781 255.5 427.125 256.609375 426.792969 257.644531 C 426.464844 258.679688 425.351562 259.25 424.316406 258.925781 C 404.5 252.621094 390.789062 261.964844 390.652344 262.058594 C 390.308594 262.296875 389.914062 262.410156 389.523438 262.410156 Z M 389.523438 262.410156 " fill-opacity="1" fill-rule="nonzero"/><path fill="#000000" d="M 346.378906 257.066406 C 345.945312 257.066406 345.503906 256.925781 345.140625 256.628906 L 320.492188 236.726562 C 319.644531 236.046875 319.515625 234.800781 320.199219 233.957031 C 320.882812 233.109375 322.125 232.972656 322.972656 233.664062 L 347.617188 253.566406 C 348.464844 254.246094 348.597656 255.488281 347.910156 256.335938 C 347.523438 256.816406 346.953125 257.066406 346.378906 257.066406 Z M 346.378906 257.066406 " fill-opacity="1" fill-rule="nonzero"/><path fill="#000000" d="M 464.933594 243.140625 C 464.460938 243.140625 463.984375 242.972656 463.605469 242.625 C 462.800781 241.890625 462.742188 240.640625 463.480469 239.839844 L 488.46875 212.5 C 489.203125 211.699219 490.453125 211.636719 491.253906 212.371094 C 492.058594 213.105469 492.113281 214.355469 491.378906 215.15625 L 466.390625 242.496094 C 466 242.925781 465.46875 243.140625 464.933594 243.140625 Z M 464.933594 243.140625 " fill-opacity="1" fill-rule="nonzero"/><path fill="#fbac9f" d="M 254.671875 401.574219 C 254.671875 401.574219 261.328125 386.714844 266.871094 383.019531 C 272.417969 379.324219 291.636719 359.492188 291.636719 359.492188 L 300.261719 339.90625 L 305.4375 328.324219 C 305.4375 328.324219 306.300781 326.324219 301.496094 327.078125 C 296.691406 327.832031 292.871094 328.695312 290.035156 333.375 C 287.203125 338.058594 279.070312 350.253906 278.332031 351.484375 C 277.589844 352.714844 269.863281 363.257812 269.460938 354.5625 C 269.054688 345.867188 276.359375 317.855469 276.359375 317.855469 L 284.246094 286.566406 C 284.246094 286.566406 286.710938 272.648438 282.027344 272.648438 C 277.34375 272.648438 277.34375 272.648438 277.34375 272.648438 C 277.34375 272.648438 272.910156 279.542969 272.292969 281.640625 C 271.675781 283.734375 266.132812 302.085938 266.132812 302.085938 L 264.777344 310.832031 C 264.777344 310.832031 261.824219 325.003906 257.632812 325.246094 C 253.4375 325.488281 252.332031 318.964844 253.566406 314.28125 C 254.796875 309.601562 258.738281 290.753906 258.738281 290.753906 L 263.050781 272.648438 C 263.050781 272.648438 265.023438 259.703125 261.449219 258.292969 C 257.878906 256.878906 254.304688 257.742188 253.6875 259.464844 C 253.070312 261.191406 248.882812 272.277344 248.882812 272.277344 L 245.925781 293.710938 C 245.925781 293.710938 243.460938 320.320312 239.519531 321.796875 C 235.574219 323.273438 234.714844 320.320312 234.835938 317.117188 C 234.960938 313.914062 236.5625 277.449219 236.5625 277.449219 C 236.5625 277.449219 236.414062 265.503906 234.824219 264.640625 C 233.234375 263.777344 225.71875 263.777344 224.609375 268.582031 C 223.5 273.386719 223.5 304.058594 223.5 304.058594 C 223.5 304.058594 227.074219 320.566406 219.679688 321.917969 C 212.289062 323.273438 213.273438 315.144531 213.273438 310.710938 C 213.273438 306.277344 213.765625 286.8125 213.765625 286.8125 C 213.765625 286.8125 214.136719 280.40625 211.425781 279.914062 C 208.714844 279.421875 206.128906 280.285156 206.128906 280.285156 C 206.128906 280.285156 200.214844 304.675781 200.582031 315.023438 C 200.953125 325.367188 201.320312 361.214844 201.320312 361.214844 L 206.621094 401.574219 L 187.769531 443.378906 L 172.121094 486.246094 L 164.109375 515.5625 C 164.109375 515.5625 141.972656 597.890625 144.929688 624.828125 C 144.929688 624.828125 149.859375 650.964844 184.359375 653.003906 C 184.359375 653.003906 221.726562 642.273438 255.898438 589.386719 L 277.539062 555.386719 L 226.015625 538.882812 L 245.15625 447.9375 Z M 254.671875 401.574219 " fill-opacity="1" fill-rule="nonzero"/><path fill="#000000" d="M 279.554688 555.386719 C 261.8125 555.386719 243.800781 549.835938 226.015625 538.882812 C 225.089844 538.3125 224.800781 537.097656 225.371094 536.171875 C 225.945312 535.242188 227.15625 534.964844 228.085938 535.527344 C 245.234375 546.089844 262.550781 551.445312 279.554688 551.445312 C 280.644531 551.445312 281.527344 552.328125 281.527344 553.414062 C 281.527344 554.503906 280.644531 555.386719 279.554688 555.386719 Z M 279.554688 555.386719 " fill-opacity="1" fill-rule="nonzero"/><path fill="#000000" d="M 252.253906 419.042969 C 251.714844 419.042969 251.175781 418.824219 250.789062 418.386719 C 250.058594 417.578125 250.125 416.332031 250.9375 415.605469 C 276.628906 392.527344 311.632812 392.792969 337.199219 393.007812 C 343.34375 393.0625 349.160156 393.109375 353.902344 392.789062 C 381.222656 390.96875 379.828125 358.332031 379.753906 356.945312 C 379.695312 355.855469 380.53125 354.929688 381.617188 354.875 C 382.707031 354.785156 383.636719 355.652344 383.691406 356.738281 C 383.710938 357.121094 385.316406 394.648438 354.164062 396.722656 C 349.269531 397.046875 343.375 397.003906 337.167969 396.949219 C 312.242188 396.757812 278.125 396.476562 253.570312 418.539062 C 253.195312 418.875 252.726562 419.042969 252.253906 419.042969 Z M 252.253906 419.042969 " fill-opacity="1" fill-rule="nonzero"/><path fill="#000000" d="M 182.824219 654.695312 C 173.40625 654.695312 162.21875 650.429688 153.832031 643.382812 C 145.988281 636.789062 142.046875 628.953125 142.722656 621.320312 C 153.542969 499.015625 199.824219 409.988281 204.441406 401.378906 C 203.71875 398.332031 201.898438 390.710938 201.898438 390.710938 C 201.800781 390.09375 195.570312 346.125 199.398438 309.816406 C 202.539062 280.097656 202.792969 277.671875 208.519531 277.4375 C 213.765625 277.25 214.445312 279.371094 215.078125 282.886719 C 215.457031 284.953125 215.59375 290.617188 215.785156 299.722656 C 215.914062 305.984375 216.050781 312.453125 216.300781 316.089844 C 216.511719 319.15625 217.410156 320.535156 218.179688 320.800781 C 218.964844 321.082031 220.214844 320.484375 221.222656 319.371094 C 222.429688 317.128906 222.226562 298.914062 222.101562 288.03125 C 221.945312 274.152344 221.953125 268.757812 222.667969 267.164062 C 224.457031 263.171875 228.523438 260.675781 232.535156 261.015625 C 236.257812 261.363281 238.449219 263.921875 238.40625 267.859375 C 238.398438 268.625 238.28125 270.402344 238.101562 273.128906 C 237.726562 278.835938 237.09375 288.386719 236.617188 301.574219 C 236.441406 306.492188 235.96875 319.550781 237.640625 321.074219 C 237.710938 321.136719 237.828125 321.15625 238.050781 321.148438 C 240.160156 317.941406 243.347656 297.890625 245.089844 286.972656 C 246.117188 280.515625 247.003906 274.9375 247.710938 271.609375 C 250.042969 260.660156 251.28125 254.609375 258.8125 255.59375 C 262.410156 256.0625 266.515625 258.507812 265.6875 267.472656 C 265.570312 268.734375 264.566406 273.488281 262.648438 282.488281 C 259.785156 295.917969 255.464844 316.207031 255.507812 320.203125 C 255.519531 321.078125 255.671875 322.59375 256.585938 322.886719 C 257.457031 323.171875 258.957031 322.550781 259.609375 321.648438 C 260.113281 320.71875 261.707031 314.222656 263.109375 308.488281 C 268.753906 285.449219 272.070312 274.085938 275.640625 271.824219 C 277.796875 270.460938 280.59375 269.011719 283.164062 270.050781 C 285.636719 271.046875 286.625 273.800781 287.261719 276.371094 C 287.824219 278.628906 286.132812 286.164062 281.511719 305.527344 C 277.503906 322.324219 270.875 350.105469 272.214844 355.019531 C 274.773438 354.632812 279.765625 346.414062 282.824219 341.386719 C 285.726562 336.605469 288.472656 332.089844 291.070312 329.507812 C 296.167969 324.457031 301.636719 323.539062 304.792969 324.882812 C 306.414062 325.570312 307.371094 326.859375 307.355469 328.328125 C 307.339844 329.933594 305.953125 332.710938 302.820312 338.835938 C 300.5625 343.242188 297.757812 348.726562 295.460938 354.167969 C 292.117188 362.082031 284.371094 369.359375 276.171875 377.066406 C 271.933594 381.046875 267.550781 385.167969 263.449219 389.640625 C 262.511719 390.664062 261.632812 391.777344 260.835938 392.941406 C 259.695312 394.570312 256.71875 399.515625 256.464844 403.042969 C 255.222656 420.195312 220.761719 575.015625 219.296875 581.597656 C 219.058594 582.660156 218.03125 583.332031 216.941406 583.09375 C 215.878906 582.855469 215.210938 581.804688 215.445312 580.742188 C 215.800781 579.132812 251.3125 419.628906 252.527344 402.757812 C 252.914062 397.414062 257.40625 390.972656 257.59375 390.703125 C 258.480469 389.402344 259.476562 388.140625 260.542969 386.976562 C 264.746094 382.394531 269.179688 378.226562 273.472656 374.195312 C 281.359375 366.78125 288.8125 359.78125 291.824219 352.636719 C 294.183594 347.0625 297.023438 341.503906 299.308594 337.039062 C 301.023438 333.683594 302.949219 329.921875 303.347656 328.554688 C 303.109375 328.4375 302.636719 328.289062 301.898438 328.28125 C 300.671875 328.304688 297.5625 328.625 293.851562 332.308594 C 291.589844 334.546875 288.847656 339.066406 286.191406 343.429688 C 280.703125 352.460938 275.914062 360.289062 270.707031 358.789062 C 266.167969 357.519531 267.46875 347.390625 277.675781 304.613281 C 280.503906 292.746094 283.71875 279.296875 283.429688 277.269531 C 282.738281 274.507812 282.046875 273.847656 281.695312 273.710938 C 281.386719 273.585938 280.386719 273.480469 277.75 275.15625 C 274.867188 277.050781 269.511719 298.914062 266.941406 309.425781 C 264.472656 319.507812 263.605469 322.855469 262.796875 323.96875 C 261.339844 325.972656 258.148438 327.515625 255.390625 326.644531 C 254.257812 326.28125 251.621094 324.9375 251.566406 320.246094 C 251.523438 316.144531 254.8125 300.351562 258.789062 281.671875 C 260.269531 274.742188 261.660156 268.195312 261.761719 267.109375 C 262.339844 260.882812 260.335938 259.769531 258.304688 259.503906 C 254.878906 259.046875 254.074219 260.636719 251.570312 272.429688 C 250.878906 275.65625 250.003906 281.1875 248.980469 287.59375 C 244.152344 317.933594 242.386719 324.578125 239.019531 325.023438 C 238.386719 325.101562 236.492188 325.351562 234.988281 323.992188 C 232.640625 321.855469 232.121094 316.792969 232.675781 301.433594 C 233.15625 288.1875 233.792969 278.597656 234.167969 272.867188 C 234.339844 270.257812 234.453125 268.554688 234.460938 267.816406 C 234.488281 265.609375 233.566406 265.070312 232.171875 264.941406 C 229.792969 264.6875 227.382812 266.300781 226.265625 268.78125 C 225.84375 270.171875 225.949219 279.636719 226.042969 287.988281 C 226.308594 311.265625 226.058594 319.90625 224.148438 322.015625 C 222.019531 324.375 219.226562 325.335938 216.890625 324.527344 C 215.039062 323.886719 212.753906 321.949219 212.363281 316.359375 C 212.105469 312.632812 211.972656 306.109375 211.839844 299.804688 C 211.703125 293.089844 211.542969 285.480469 211.242188 283.832031 C 211.046875 282.746094 210.859375 281.699219 210.6875 281.472656 C 210.660156 281.472656 210.261719 281.304688 208.679688 281.382812 C 206.574219 281.464844 206.074219 284.160156 203.320312 310.234375 C 199.546875 345.984375 205.683594 389.394531 205.769531 389.96875 C 205.777344 389.96875 207.925781 398.957031 208.453125 401.203125 C 208.5625 401.679688 208.492188 402.183594 208.253906 402.613281 C 207.75 403.511719 157.90625 494.425781 146.648438 621.667969 C 146.089844 627.984375 149.542969 634.625 156.371094 640.363281 C 165.792969 648.28125 179.449219 652.515625 188.144531 650.183594 C 188.277344 650.085938 234.566406 627.574219 277.84375 552.433594 C 278.386719 551.488281 279.601562 551.167969 280.535156 551.707031 C 281.484375 552.25 281.808594 553.453125 281.265625 554.398438 C 237.304688 630.726562 191.425781 652.964844 189.492188 653.871094 C 187.429688 654.429688 185.179688 654.695312 182.824219 654.695312 Z M 182.824219 654.695312 " fill-opacity="1" fill-rule="nonzero"/></svg>