<svg xmlns="http://www.w3.org/2000/svg" xmlns:xlink="http://www.w3.org/1999/xlink" width="1080" zoomAndPan="magnify" viewBox="0 0 810 809.999993" height="1080" preserveAspectRatio="xMidYMid meet" version="1.0"><defs><g/><clipPath id="9de94b27d7"><path d="M 424 343 L 596 343 L 596 489 L 424 489 Z M 424 343 " clip-rule="nonzero"/></clipPath><clipPath id="1180b65d73"><path d="M 504.289062 293.550781 L 688.417969 381.371094 L 591.878906 583.777344 L 407.75 495.957031 Z M 504.289062 293.550781 " clip-rule="nonzero"/></clipPath><clipPath id="3039bc9847"><path d="M 504.289062 293.550781 L 688.417969 381.371094 L 591.878906 583.777344 L 407.75 495.957031 Z M 504.289062 293.550781 " clip-rule="nonzero"/></clipPath><clipPath id="2a33089398"><path d="M 419 373 L 631 373 L 631 503 L 419 503 Z M 419 373 " clip-rule="nonzero"/></clipPath><clipPath id="796a42a277"><path d="M 504.289062 293.550781 L 688.417969 381.371094 L 591.878906 583.777344 L 407.75 495.957031 Z M 504.289062 293.550781 " clip-rule="nonzero"/></clipPath><clipPath id="5c0e5072da"><path d="M 504.289062 293.550781 L 688.417969 381.371094 L 591.878906 583.777344 L 407.75 495.957031 Z M 504.289062 293.550781 " clip-rule="nonzero"/></clipPath><clipPath id="c60bff0f2a"><path d="M 430 315 L 562 315 L 562 473 L 430 473 Z M 430 315 " clip-rule="nonzero"/></clipPath><clipPath id="7962adc9f6"><path d="M 504.289062 293.550781 L 688.417969 381.371094 L 591.878906 583.777344 L 407.75 495.957031 Z M 504.289062 293.550781 " clip-rule="nonzero"/></clipPath><clipPath id="5224d32ea9"><path d="M 504.289062 293.550781 L 688.417969 381.371094 L 591.878906 583.777344 L 407.75 495.957031 Z M 504.289062 293.550781 " clip-rule="nonzero"/></clipPath><clipPath id="78eef7a997"><path d="M 213 343 L 385 343 L 385 489 L 213 489 Z M 213 343 " clip-rule="nonzero"/></clipPath><clipPath id="87a84b5d39"><path d="M 121.546875 380.773438 L 306.058594 293.757812 L 401.714844 496.582031 L 217.203125 583.601562 Z M 121.546875 380.773438 " clip-rule="nonzero"/></clipPath><clipPath id="fb56404e56"><path d="M 306.089844 293.742188 L 121.582031 380.761719 L 217.238281 583.585938 L 401.746094 496.566406 Z M 306.089844 293.742188 " clip-rule="nonzero"/></clipPath><clipPath id="ffb9aa5754"><path d="M 178 373 L 390 373 L 390 503 L 178 503 Z M 178 373 " clip-rule="nonzero"/></clipPath><clipPath id="01065f2c06"><path d="M 121.546875 380.773438 L 306.058594 293.757812 L 401.714844 496.582031 L 217.203125 583.601562 Z M 121.546875 380.773438 " clip-rule="nonzero"/></clipPath><clipPath id="98fcf53c88"><path d="M 306.089844 293.742188 L 121.582031 380.761719 L 217.238281 583.585938 L 401.746094 496.566406 Z M 306.089844 293.742188 " clip-rule="nonzero"/></clipPath><clipPath id="3292ba19a9"><path d="M 248 315 L 379 315 L 379 473 L 248 473 Z M 248 315 " clip-rule="nonzero"/></clipPath><clipPath id="0676266065"><path d="M 121.546875 380.773438 L 306.058594 293.757812 L 401.714844 496.582031 L 217.203125 583.601562 Z M 121.546875 380.773438 " clip-rule="nonzero"/></clipPath><clipPath id="43e5b2a18c"><path d="M 306.089844 293.742188 L 121.582031 380.761719 L 217.238281 583.585938 L 401.746094 496.566406 Z M 306.089844 293.742188 " clip-rule="nonzero"/></clipPath><clipPath id="1e378839b8"><path d="M 340 273 L 467 273 L 467 459.957031 L 340 459.957031 Z M 340 273 " clip-rule="nonzero"/></clipPath></defs><g clip-path="url(#9de94b27d7)"><g clip-path="url(#1180b65d73)"><g clip-path="url(#3039bc9847)"><path fill="#000000" d="M 595.867188 472.964844 L 584.769531 343.578125 C 584.769531 343.578125 571.78125 345.140625 556.414062 349.921875 L 557.523438 362.875 C 561.667969 362.675781 566.046875 362.773438 570.640625 363.265625 L 580.207031 457.023438 C 580.207031 457.023438 473.914062 444.78125 424.8125 488.320312 C 424.8125 488.320312 486.175781 451.492188 595.867188 472.964844 " fill-opacity="1" fill-rule="nonzero"/></g></g></g><g clip-path="url(#2a33089398)"><g clip-path="url(#796a42a277)"><g clip-path="url(#5c0e5072da)"><path fill="#000000" d="M 619.386719 373.375 C 619.386719 373.375 606.398438 374.9375 591.035156 379.722656 L 592.144531 392.675781 C 596.289062 392.472656 600.664062 392.570312 605.257812 393.0625 L 614.824219 486.820312 C 614.824219 486.820312 488.886719 458.492188 419.652344 501.945312 C 419.652344 501.945312 495.984375 475.210938 630.488281 502.765625 L 619.386719 373.375 " fill-opacity="1" fill-rule="nonzero"/></g></g></g><g clip-path="url(#c60bff0f2a)"><g clip-path="url(#7962adc9f6)"><g clip-path="url(#5224d32ea9)"><path fill="#000000" d="M 430.890625 472.261719 C 430.890625 472.261719 483.507812 430.425781 561.429688 444.90625 L 550.328125 315.515625 C 550.328125 315.515625 491.746094 322.546875 476.214844 352.550781 C 476.214844 352.550781 499.304688 331.25 536.199219 335.203125 L 545.765625 428.957031 C 545.765625 428.957031 470.410156 426.300781 430.890625 472.261719 " fill-opacity="1" fill-rule="nonzero"/></g></g></g><g clip-path="url(#78eef7a997)"><g clip-path="url(#87a84b5d39)"><g clip-path="url(#fb56404e56)"><path fill="#000000" d="M 213.730469 472.757812 L 225.390625 343.417969 C 225.390625 343.417969 238.375 345.039062 253.71875 349.886719 L 252.554688 362.835938 C 248.410156 362.617188 244.03125 362.695312 239.4375 363.167969 L 229.460938 456.882812 C 229.460938 456.882812 335.804688 445.105469 384.71875 488.855469 C 384.71875 488.855469 323.515625 451.761719 213.730469 472.757812 " fill-opacity="1" fill-rule="nonzero"/></g></g></g><g clip-path="url(#ffb9aa5754)"><g clip-path="url(#01065f2c06)"><g clip-path="url(#98fcf53c88)"><path fill="#000000" d="M 190.644531 373.066406 C 190.644531 373.066406 203.625 374.683594 218.96875 379.535156 L 217.804688 392.484375 C 213.660156 392.261719 209.285156 392.34375 204.6875 392.816406 L 194.710938 486.53125 C 194.710938 486.53125 320.773438 458.75 389.816406 502.503906 C 389.816406 502.503906 313.601562 475.433594 178.980469 502.40625 L 190.644531 373.066406 " fill-opacity="1" fill-rule="nonzero"/></g></g></g><g clip-path="url(#3292ba19a9)"><g clip-path="url(#0676266065)"><g clip-path="url(#43e5b2a18c)"><path fill="#000000" d="M 378.707031 472.769531 C 378.707031 472.769531 326.277344 430.707031 248.292969 444.847656 L 259.953125 315.507812 C 259.953125 315.507812 318.503906 322.792969 333.90625 352.867188 C 333.90625 352.867188 310.910156 331.460938 274 335.253906 L 264.023438 428.96875 C 264.023438 428.96875 339.390625 426.640625 378.707031 472.769531 " fill-opacity="1" fill-rule="nonzero"/></g></g></g><path fill="#000000" d="M 461.175781 252.136719 C 461.011719 254.683594 459.230469 256.847656 456.828125 257.71875 L 406.503906 275.945312 C 405.808594 276.195312 405.082031 276.324219 404.351562 276.324219 C 403.625 276.324219 402.894531 276.195312 402.203125 275.945312 L 355.375 258.988281 C 353.894531 258.449219 353.171875 256.75 353.863281 255.292969 C 354.464844 254.019531 355.996094 253.480469 357.320312 253.960938 L 404.035156 270.878906 C 404.238281 270.953125 404.464844 270.953125 404.664062 270.878906 L 455.183594 252.582031 C 455.683594 252.402344 455.792969 252.011719 455.792969 251.71875 C 455.796875 251.476562 455.722656 251.042969 455.199219 250.84375 L 404.679688 231.554688 C 404.472656 231.472656 404.234375 231.472656 404.019531 231.554688 L 369.089844 244.890625 C 370.332031 245.335938 371.605469 245.820312 372.90625 246.34375 C 391.441406 253.804688 404.136719 247.53125 408.707031 244.519531 C 409.15625 244.222656 409.667969 244.078125 410.179688 244.078125 C 410.921875 244.078125 411.660156 244.390625 412.191406 244.984375 C 413.285156 246.21875 413.023438 248.125 411.644531 249.027344 C 406.082031 252.671875 391.582031 259.671875 370.894531 251.34375 C 341.914062 239.675781 330.515625 249.6875 326.898438 254.667969 L 330.214844 256.679688 L 322.078125 269.800781 C 320.015625 273.121094 315.703125 274.230469 312.296875 272.308594 C 308.695312 270.28125 307.496094 265.667969 309.65625 262.144531 L 317.664062 249.074219 L 322.34375 251.910156 C 326.242188 246.523438 336.964844 236.613281 360.625 242.355469 L 402.101562 226.519531 C 403.550781 225.964844 405.148438 225.964844 406.605469 226.519531 L 457.121094 245.808594 C 459.730469 246.804688 461.355469 249.316406 461.175781 252.136719 Z M 461.175781 252.136719 " fill-opacity="1" fill-rule="nonzero"/><g clip-path="url(#1e378839b8)"><path fill="#000000" d="M 428.5625 274.140625 L 406.503906 282.128906 C 405.808594 282.378906 405.082031 282.503906 404.351562 282.503906 C 403.625 282.503906 402.894531 282.378906 402.203125 282.128906 L 379.367188 273.859375 C 369.082031 309.429688 340.914062 338.164062 340.914062 338.164062 C 349.039062 347.695312 357.011719 359.882812 364.472656 373.4375 L 387.089844 422.230469 C 391.308594 433.054688 398.066406 449.65625 401.191406 459.8125 L 400.488281 408.050781 C 400.835938 400.382812 400.851562 361.738281 400.65625 344.785156 C 398.195312 343.535156 396.503906 340.980469 396.503906 338.027344 C 396.503906 333.894531 399.8125 330.539062 403.925781 330.457031 C 408.035156 330.539062 411.34375 333.894531 411.34375 338.027344 C 411.34375 340.980469 409.652344 343.535156 407.191406 344.785156 C 406.996094 361.738281 407.011719 400.382812 407.359375 408.050781 L 406.65625 459.8125 C 409.78125 449.652344 416.539062 433.050781 420.757812 422.230469 L 443.375 373.4375 C 450.835938 359.882812 458.808594 347.695312 466.933594 338.164062 C 466.933594 338.167969 438.914062 309.582031 428.5625 274.140625 Z M 428.5625 274.140625 " fill-opacity="1" fill-rule="nonzero"/></g><g fill="#000000" fill-opacity="1"><g transform="translate(79.891317, 623.416453)"><g><path d="M 67.734375 -7.125 L 67.734375 0 L 12.671875 0 L 12.671875 -77.859375 L 66.0625 -77.859375 L 66.0625 -70.734375 L 20.90625 -70.734375 L 20.90625 -43.046875 L 61.171875 -43.046875 L 61.171875 -36.03125 L 20.90625 -36.03125 L 20.90625 -7.125 Z M 67.734375 -7.125 "/></g></g></g><g fill="#000000" fill-opacity="1"><g transform="translate(172.087113, 623.416453)"><g><path d="M 68.84375 -7.125 L 68.84375 0 L 5 0 L 5 -5.671875 L 56.609375 -70.734375 L 5.78125 -70.734375 L 5.78125 -77.859375 L 67.515625 -77.859375 L 67.515625 -72.1875 L 16.015625 -7.125 Z M 68.84375 -7.125 "/></g></g></g><g fill="#000000" fill-opacity="1"><g transform="translate(262.281109, 623.416453)"><g><path d="M 77.734375 -77.859375 L 77.734375 0 L 70.953125 0 L 20.90625 -63.171875 L 20.90625 0 L 12.671875 0 L 12.671875 -77.859375 L 19.46875 -77.859375 L 69.625 -14.6875 L 69.625 -77.859375 Z M 77.734375 -77.859375 "/></g></g></g><g fill="#000000" fill-opacity="1"><g transform="translate(370.491285, 623.416453)"><g><path d="M 46.71875 0.671875 C 39 0.671875 32.003906 -1.050781 25.734375 -4.5 C 19.472656 -7.945312 14.582031 -12.671875 11.0625 -18.671875 C 7.539062 -24.679688 5.78125 -31.429688 5.78125 -38.921875 C 5.78125 -46.410156 7.539062 -53.15625 11.0625 -59.15625 C 14.582031 -65.164062 19.472656 -69.894531 25.734375 -73.34375 C 32.003906 -76.789062 39 -78.515625 46.71875 -78.515625 C 54.425781 -78.515625 61.375 -76.804688 67.5625 -73.390625 C 73.757812 -69.984375 78.632812 -65.257812 82.1875 -59.21875 C 85.75 -53.175781 87.53125 -46.410156 87.53125 -38.921875 C 87.53125 -31.429688 85.75 -24.664062 82.1875 -18.625 C 78.632812 -12.582031 73.757812 -7.851562 67.5625 -4.4375 C 61.375 -1.03125 54.425781 0.671875 46.71875 0.671875 Z M 46.71875 -6.671875 C 52.863281 -6.671875 58.421875 -8.0625 63.390625 -10.84375 C 68.359375 -13.625 72.25 -17.476562 75.0625 -22.40625 C 77.882812 -27.34375 79.296875 -32.847656 79.296875 -38.921875 C 79.296875 -45.003906 77.882812 -50.507812 75.0625 -55.4375 C 72.25 -60.375 68.359375 -64.234375 63.390625 -67.015625 C 58.421875 -69.796875 52.863281 -71.1875 46.71875 -71.1875 C 40.5625 -71.1875 34.976562 -69.796875 29.96875 -67.015625 C 24.96875 -64.234375 21.039062 -60.375 18.1875 -55.4375 C 15.332031 -50.507812 13.90625 -45.003906 13.90625 -38.921875 C 13.90625 -32.847656 15.332031 -27.34375 18.1875 -22.40625 C 21.039062 -17.476562 24.96875 -13.625 29.96875 -10.84375 C 34.976562 -8.0625 40.5625 -6.671875 46.71875 -6.671875 Z M 46.71875 -6.671875 "/></g></g></g><g fill="#000000" fill-opacity="1"><g transform="translate(481.592926, 623.416453)"><g><path d="M 27.796875 -70.734375 L 0.4375 -70.734375 L 0.4375 -77.859375 L 63.390625 -77.859375 L 63.390625 -70.734375 L 36.03125 -70.734375 L 36.03125 0 L 27.796875 0 Z M 27.796875 -70.734375 "/></g></g></g><g fill="#000000" fill-opacity="1"><g transform="translate(563.223675, 623.416453)"><g><path d="M 67.734375 -7.125 L 67.734375 0 L 12.671875 0 L 12.671875 -77.859375 L 66.0625 -77.859375 L 66.0625 -70.734375 L 20.90625 -70.734375 L 20.90625 -43.046875 L 61.171875 -43.046875 L 61.171875 -36.03125 L 20.90625 -36.03125 L 20.90625 -7.125 Z M 67.734375 -7.125 "/></g></g></g><g fill="#000000" fill-opacity="1"><g transform="translate(655.41947, 623.416453)"><g><path d="M 34.140625 0.671875 C 28.359375 0.671875 22.816406 -0.253906 17.515625 -2.109375 C 12.210938 -3.960938 8.117188 -6.410156 5.234375 -9.453125 L 8.453125 -15.796875 C 11.265625 -12.972656 15.003906 -10.691406 19.671875 -8.953125 C 24.347656 -7.210938 29.171875 -6.34375 34.140625 -6.34375 C 41.109375 -6.34375 46.332031 -7.617188 49.8125 -10.171875 C 53.300781 -12.734375 55.046875 -16.050781 55.046875 -20.125 C 55.046875 -23.238281 54.097656 -25.722656 52.203125 -27.578125 C 50.316406 -29.429688 48.003906 -30.859375 45.265625 -31.859375 C 42.523438 -32.859375 38.707031 -33.953125 33.8125 -35.140625 C 27.957031 -36.628906 23.285156 -38.054688 19.796875 -39.421875 C 16.304688 -40.796875 13.320312 -42.890625 10.84375 -45.703125 C 8.363281 -48.523438 7.125 -52.347656 7.125 -57.171875 C 7.125 -61.097656 8.160156 -64.671875 10.234375 -67.890625 C 12.304688 -71.117188 15.492188 -73.695312 19.796875 -75.625 C 24.097656 -77.550781 29.4375 -78.515625 35.8125 -78.515625 C 40.257812 -78.515625 44.613281 -77.898438 48.875 -76.671875 C 53.144531 -75.453125 56.835938 -73.769531 59.953125 -71.625 L 57.171875 -65.0625 C 53.898438 -67.207031 50.410156 -68.816406 46.703125 -69.890625 C 43.003906 -70.972656 39.375 -71.515625 35.8125 -71.515625 C 28.988281 -71.515625 23.851562 -70.195312 20.40625 -67.5625 C 16.957031 -64.925781 15.234375 -61.535156 15.234375 -57.390625 C 15.234375 -54.273438 16.175781 -51.769531 18.0625 -49.875 C 19.957031 -47.988281 22.332031 -46.546875 25.1875 -45.546875 C 28.039062 -44.546875 31.878906 -43.453125 36.703125 -42.265625 C 42.410156 -40.859375 47.023438 -39.46875 50.546875 -38.09375 C 54.066406 -36.71875 57.050781 -34.640625 59.5 -31.859375 C 61.945312 -29.078125 63.171875 -25.316406 63.171875 -20.578125 C 63.171875 -16.648438 62.113281 -13.070312 60 -9.84375 C 57.882812 -6.613281 54.640625 -4.050781 50.265625 -2.15625 C 45.890625 -0.269531 40.515625 0.671875 34.140625 0.671875 Z M 34.140625 0.671875 "/></g></g></g></svg>