<svg xmlns="http://www.w3.org/2000/svg" xmlns:xlink="http://www.w3.org/1999/xlink" width="1080" zoomAndPan="magnify" viewBox="0 0 810 809.999993" height="1080" preserveAspectRatio="xMidYMid meet" version="1.0"><defs><g/><clipPath id="24ebaaf2c2"><path d="M 466 438 L 696 438 L 696 668 L 466 668 Z M 466 438 " clip-rule="nonzero"/></clipPath><clipPath id="37e0a53d97"><path d="M 689.371094 432.636719 L 809.753906 553.019531 L 580.652344 782.125 L 460.265625 661.738281 Z M 689.371094 432.636719 " clip-rule="nonzero"/></clipPath><clipPath id="ed3d93a5a9"><path d="M 689.371094 432.636719 L 809.753906 553.019531 L 580.652344 782.125 L 460.265625 661.738281 Z M 689.371094 432.636719 " clip-rule="nonzero"/></clipPath><clipPath id="2869bdfd06"><path d="M 123 169 L 353 169 L 353 399 L 123 399 Z M 123 169 " clip-rule="nonzero"/></clipPath><clipPath id="9f88219f73"><path d="M 129.898438 404.996094 L 9.511719 284.613281 L 238.613281 55.511719 L 359 175.894531 Z M 129.898438 404.996094 " clip-rule="nonzero"/></clipPath><clipPath id="b6ac150207"><path d="M 129.898438 404.996094 L 9.511719 284.613281 L 238.613281 55.511719 L 359 175.894531 Z M 129.898438 404.996094 " clip-rule="nonzero"/></clipPath></defs><g clip-path="url(#24ebaaf2c2)"><g clip-path="url(#37e0a53d97)"><g clip-path="url(#ed3d93a5a9)"><path fill="#ffffff" d="M 695.445312 438.851562 L 695.445312 667.8125 L 466.480469 667.8125 L 466.480469 655.523438 L 683.175781 655.546875 L 683.199219 438.851562 Z M 695.445312 438.851562 " fill-opacity="1" fill-rule="nonzero"/></g></g></g><g clip-path="url(#2869bdfd06)"><g clip-path="url(#9f88219f73)"><g clip-path="url(#b6ac150207)"><path fill="#ffffff" d="M 123.824219 398.78125 L 123.824219 169.820312 L 352.785156 169.820312 L 352.785156 182.109375 L 136.089844 182.085938 L 136.066406 398.78125 Z M 123.824219 398.78125 " fill-opacity="1" fill-rule="nonzero"/></g></g></g><g fill="#ff914d" fill-opacity="1"><g transform="translate(188.111229, 581.740978)"><g><path d="M 10.1875 -137.625 L 31.609375 -137.625 L 59.8125 -71.359375 L 59.8125 -137.625 L 84.953125 -137.625 L 84.953125 0 L 64.390625 0 L 36.1875 -71.359375 L 36.1875 0 L 10.1875 0 Z M 10.1875 -137.625 "/></g></g></g><g fill="#ff914d" fill-opacity="1"><g transform="translate(283.424258, 581.740978)"><g><path d="M 49.609375 2.03125 C 34.773438 2.03125 24.1875 -1.789062 17.84375 -9.4375 C 11.5 -17.082031 8.328125 -28.378906 8.328125 -43.328125 L 8.328125 -94.46875 C 8.328125 -109.414062 11.5 -120.65625 17.84375 -128.1875 C 24.1875 -135.726562 34.773438 -139.5 49.609375 -139.5 C 64.566406 -139.5 75.242188 -135.703125 81.640625 -128.109375 C 88.035156 -120.515625 91.234375 -109.300781 91.234375 -94.46875 L 91.234375 -43.328125 C 91.234375 -28.378906 88.035156 -17.082031 81.640625 -9.4375 C 75.242188 -1.789062 64.566406 2.03125 49.609375 2.03125 Z M 49.609375 -19.546875 C 53.910156 -19.546875 56.738281 -20.988281 58.09375 -23.875 C 59.457031 -26.757812 60.140625 -30.695312 60.140625 -35.6875 L 60.140625 -101.9375 C 60.140625 -107.039062 59.457031 -111.003906 58.09375 -113.828125 C 56.738281 -116.660156 53.910156 -118.078125 49.609375 -118.078125 C 45.535156 -118.078125 42.816406 -116.632812 41.453125 -113.75 C 40.097656 -110.863281 39.421875 -106.925781 39.421875 -101.9375 L 39.421875 -35.6875 C 39.421875 -30.695312 40.039062 -26.757812 41.28125 -23.875 C 42.53125 -20.988281 45.304688 -19.546875 49.609375 -19.546875 Z M 49.609375 -19.546875 "/></g></g></g><g fill="#ff914d" fill-opacity="1"><g transform="translate(382.984739, 581.740978)"><g><path d="M 22.59375 -115.03125 L 1.875 -115.03125 L 1.875 -137.625 L 73.734375 -137.625 L 73.734375 -115.03125 L 53.1875 -115.03125 L 53.1875 0 L 22.59375 0 Z M 22.59375 -115.03125 "/></g></g></g><g fill="#ff914d" fill-opacity="1"><g transform="translate(458.589532, 581.740978)"><g><path d="M 10.1875 -137.625 L 72.046875 -137.625 L 72.046875 -116.890625 L 40.609375 -116.890625 L 40.609375 -82.75 L 64.5625 -82.75 L 64.5625 -61.671875 L 40.609375 -61.671875 L 40.609375 -20.5625 L 72.375 -20.5625 L 72.375 0 L 10.1875 0 Z M 10.1875 -137.625 "/></g></g></g><g fill="#ff914d" fill-opacity="1"><g transform="translate(534.534123, 581.740978)"><g><path d="M 46.71875 2.03125 C 33.582031 2.03125 23.8125 -1.445312 17.40625 -8.40625 C 11.007812 -15.375 7.585938 -26.445312 7.140625 -41.625 L 33.125 -45.53125 C 33.238281 -36.8125 34.285156 -30.550781 36.265625 -26.75 C 38.253906 -22.957031 41.226562 -21.0625 45.1875 -21.0625 C 50.289062 -21.0625 52.84375 -24.40625 52.84375 -31.09375 C 52.84375 -36.414062 51.625 -41 49.1875 -44.84375 C 46.75 -48.695312 42.925781 -52.835938 37.71875 -57.265625 L 25.828125 -67.625 C 19.929688 -72.601562 15.367188 -77.894531 12.140625 -83.5 C 8.921875 -89.113281 7.3125 -95.769531 7.3125 -103.46875 C 7.3125 -115.019531 10.734375 -123.910156 17.578125 -130.140625 C 24.429688 -136.378906 33.863281 -139.5 45.875 -139.5 C 58.894531 -139.5 67.753906 -135.703125 72.453125 -128.109375 C 77.160156 -120.515625 79.6875 -111.285156 80.03125 -100.421875 L 53.859375 -97.1875 C 53.628906 -104.320312 52.976562 -109.445312 51.90625 -112.5625 C 50.832031 -115.675781 48.484375 -117.234375 44.859375 -117.234375 C 42.253906 -117.234375 40.242188 -116.128906 38.828125 -113.921875 C 37.410156 -111.710938 36.703125 -109.25 36.703125 -106.53125 C 36.703125 -101.882812 37.75 -97.972656 39.84375 -94.796875 C 41.9375 -91.628906 45.304688 -88.007812 49.953125 -83.9375 L 61.34375 -73.90625 C 68.132812 -68.132812 73.398438 -62.019531 77.140625 -55.5625 C 80.878906 -49.101562 82.75 -41.457031 82.75 -32.625 C 82.75 -26.164062 81.242188 -20.300781 78.234375 -15.03125 C 75.234375 -9.769531 71.015625 -5.609375 65.578125 -2.546875 C 60.140625 0.503906 53.851562 2.03125 46.71875 2.03125 Z M 46.71875 2.03125 "/></g></g></g><path stroke-linecap="butt" transform="matrix(0.75, 0, 0, 0.75, 184.138573, 185.418863)" fill="none" stroke-linejoin="miter" d="M 198.054829 85.415479 L 290.44025 85.415479 L 290.44025 116.394647 L 243.471498 116.394647 L 243.471498 167.389442 L 279.221499 167.389442 L 279.221499 198.863401 L 243.471498 198.863401 L 243.471498 260.269655 L 290.935042 260.269655 L 290.935042 290.998823 L 198.054829 290.998823 Z M 303.627751 263.613405 L 353.877753 116.149856 L 305.919417 116.149856 L 305.919417 85.415479 L 398.54963 85.415479 L 398.54963 111.066522 L 347.492336 260.269655 L 399.044422 260.269655 L 399.044422 290.998823 L 303.627751 290.998823 Z M 303.627751 263.613405 " stroke="#5ce1e6" stroke-width="9.517463" stroke-opacity="1" stroke-miterlimit="4"/></svg>