<svg xmlns="http://www.w3.org/2000/svg" xmlns:xlink="http://www.w3.org/1999/xlink" width="1080" zoomAndPan="magnify" viewBox="0 0 810 809.999993" height="1080" preserveAspectRatio="xMidYMid meet" version="1.0"><defs><g/><clipPath id="c7f95a1825"><path d="M 423 290 L 593.792969 290 L 593.792969 435 L 423 435 Z M 423 290 " clip-rule="nonzero"/></clipPath><clipPath id="b0faf73b78"><path d="M 502.421875 240.496094 L 685.867188 327.992188 L 589.6875 529.648438 L 406.238281 442.152344 Z M 502.421875 240.496094 " clip-rule="nonzero"/></clipPath><clipPath id="c7d9358a06"><path d="M 502.421875 240.496094 L 685.867188 327.992188 L 589.6875 529.648438 L 406.238281 442.152344 Z M 502.421875 240.496094 " clip-rule="nonzero"/></clipPath><clipPath id="25d0e2a630"><path d="M 418 320 L 628.664062 320 L 628.664062 449 L 418 449 Z M 418 320 " clip-rule="nonzero"/></clipPath><clipPath id="8c955bfd79"><path d="M 502.421875 240.496094 L 685.867188 327.992188 L 589.6875 529.648438 L 406.238281 442.152344 Z M 502.421875 240.496094 " clip-rule="nonzero"/></clipPath><clipPath id="3d93b41fac"><path d="M 502.421875 240.496094 L 685.867188 327.992188 L 589.6875 529.648438 L 406.238281 442.152344 Z M 502.421875 240.496094 " clip-rule="nonzero"/></clipPath><clipPath id="50d10d9524"><path d="M 429 262 L 559.917969 262 L 559.917969 419 L 429 419 Z M 429 262 " clip-rule="nonzero"/></clipPath><clipPath id="639ea82d46"><path d="M 502.421875 240.496094 L 685.867188 327.992188 L 589.6875 529.648438 L 406.238281 442.152344 Z M 502.421875 240.496094 " clip-rule="nonzero"/></clipPath><clipPath id="da7e5e07ca"><path d="M 502.421875 240.496094 L 685.867188 327.992188 L 589.6875 529.648438 L 406.238281 442.152344 Z M 502.421875 240.496094 " clip-rule="nonzero"/></clipPath><clipPath id="e6bc336d90"><path d="M 212.210938 290 L 383.574219 290 L 383.574219 435.21875 L 212.210938 435.21875 Z M 212.210938 290 " clip-rule="nonzero"/></clipPath><clipPath id="e4b73bbfe8"><path d="M 121.097656 327.394531 L 304.925781 240.703125 L 400.226562 442.773438 L 216.398438 529.472656 Z M 121.097656 327.394531 " clip-rule="nonzero"/></clipPath><clipPath id="1bced8b872"><path d="M 304.957031 240.6875 L 121.132812 327.382812 L 216.433594 529.457031 L 400.257812 442.757812 Z M 304.957031 240.6875 " clip-rule="nonzero"/></clipPath><clipPath id="b9dcc446ee"><path d="M 178 319.648438 L 388.554688 319.648438 L 388.554688 449 L 178 449 Z M 178 319.648438 " clip-rule="nonzero"/></clipPath><clipPath id="0c0684b06e"><path d="M 121.097656 327.394531 L 304.925781 240.703125 L 400.226562 442.773438 L 216.398438 529.472656 Z M 121.097656 327.394531 " clip-rule="nonzero"/></clipPath><clipPath id="289d134f41"><path d="M 304.957031 240.6875 L 121.132812 327.382812 L 216.433594 529.457031 L 400.257812 442.757812 Z M 304.957031 240.6875 " clip-rule="nonzero"/></clipPath><clipPath id="8c4ace8cb5"><path d="M 247.082031 262 L 377.597656 262 L 377.597656 419.28125 L 247.082031 419.28125 Z M 247.082031 262 " clip-rule="nonzero"/></clipPath><clipPath id="b34ccb4897"><path d="M 121.097656 327.394531 L 304.925781 240.703125 L 400.226562 442.773438 L 216.398438 529.472656 Z M 121.097656 327.394531 " clip-rule="nonzero"/></clipPath><clipPath id="6744932046"><path d="M 304.957031 240.6875 L 121.132812 327.382812 L 216.433594 529.457031 L 400.257812 442.757812 Z M 304.957031 240.6875 " clip-rule="nonzero"/></clipPath><clipPath id="f278bff06a"><path d="M 339 220.019531 L 465.269531 220.019531 L 465.269531 406.285156 L 339 406.285156 Z M 339 220.019531 " clip-rule="nonzero"/></clipPath></defs><g clip-path="url(#c7f95a1825)"><g clip-path="url(#b0faf73b78)"><g clip-path="url(#c7d9358a06)"><path fill="#0cc0df" d="M 593.660156 419.246094 L 582.605469 290.335938 C 582.605469 290.335938 569.664062 291.894531 554.351562 296.65625 L 555.457031 309.5625 C 559.585938 309.363281 563.949219 309.460938 568.527344 309.953125 L 578.058594 403.363281 C 578.058594 403.363281 472.160156 391.164062 423.238281 434.542969 C 423.238281 434.542969 484.375 397.851562 593.660156 419.246094 " fill-opacity="1" fill-rule="nonzero"/></g></g></g><g clip-path="url(#25d0e2a630)"><g clip-path="url(#8c955bfd79)"><g clip-path="url(#3d93b41fac)"><path fill="#38b6ff" d="M 617.09375 320.023438 C 617.09375 320.023438 604.152344 321.582031 588.847656 326.347656 L 589.953125 339.253906 C 594.082031 339.050781 598.4375 339.148438 603.015625 339.636719 L 612.546875 433.050781 C 612.546875 433.050781 487.074219 404.824219 418.097656 448.117188 C 418.097656 448.117188 494.148438 421.484375 628.152344 448.933594 L 617.09375 320.023438 " fill-opacity="1" fill-rule="nonzero"/></g></g></g><g clip-path="url(#50d10d9524)"><g clip-path="url(#639ea82d46)"><g clip-path="url(#da7e5e07ca)"><path fill="#ff914d" d="M 429.292969 418.542969 C 429.292969 418.542969 481.71875 376.863281 559.351562 391.289062 L 548.289062 262.378906 C 548.289062 262.378906 489.925781 269.382812 474.449219 299.277344 C 474.449219 299.277344 497.457031 278.054688 534.214844 281.992188 L 543.746094 375.398438 C 543.746094 375.398438 468.667969 372.753906 429.292969 418.542969 " fill-opacity="1" fill-rule="nonzero"/></g></g></g><g clip-path="url(#e6bc336d90)"><g clip-path="url(#e4b73bbfe8)"><g clip-path="url(#1bced8b872)"><path fill="#0cc0df" d="M 212.9375 419.039062 L 224.554688 290.179688 C 224.554688 290.179688 237.492188 291.792969 252.777344 296.621094 L 251.621094 309.523438 C 247.488281 309.304688 243.128906 309.382812 238.550781 309.855469 L 228.609375 403.222656 C 228.609375 403.222656 334.5625 391.488281 383.292969 435.078125 C 383.292969 435.078125 322.316406 398.121094 212.9375 419.039062 " fill-opacity="1" fill-rule="nonzero"/></g></g></g><g clip-path="url(#b9dcc446ee)"><g clip-path="url(#0c0684b06e)"><g clip-path="url(#289d134f41)"><path fill="#38b6ff" d="M 189.9375 319.714844 C 189.9375 319.714844 202.871094 321.328125 218.15625 326.160156 L 216.996094 339.0625 C 212.867188 338.839844 208.511719 338.921875 203.929688 339.394531 L 193.988281 432.761719 C 193.988281 432.761719 319.585938 405.082031 388.371094 448.675781 C 388.371094 448.675781 312.441406 421.703125 178.316406 448.578125 L 189.9375 319.714844 " fill-opacity="1" fill-rule="nonzero"/></g></g></g><g clip-path="url(#8c4ace8cb5)"><g clip-path="url(#b34ccb4897)"><g clip-path="url(#6744932046)"><path fill="#ff914d" d="M 377.304688 419.050781 C 377.304688 419.050781 325.070312 377.144531 247.375 391.230469 L 258.992188 262.371094 C 258.992188 262.371094 317.324219 269.628906 332.667969 299.59375 C 332.667969 299.59375 309.757812 278.265625 272.984375 282.042969 L 263.046875 375.410156 C 263.046875 375.410156 338.132812 373.09375 377.304688 419.050781 " fill-opacity="1" fill-rule="nonzero"/></g></g></g><path fill="#38b6ff" d="M 459.46875 199.234375 C 459.304688 201.773438 457.53125 203.929688 455.136719 204.796875 L 405 222.953125 C 404.304688 223.203125 403.582031 223.332031 402.855469 223.332031 C 402.128906 223.332031 401.402344 223.203125 400.714844 222.953125 L 354.058594 206.0625 C 352.582031 205.523438 351.863281 203.832031 352.550781 202.378906 C 353.152344 201.109375 354.675781 200.574219 355.996094 201.050781 L 402.539062 217.90625 C 402.742188 217.980469 402.96875 217.980469 403.164062 217.90625 L 453.496094 199.679688 C 453.996094 199.5 454.105469 199.109375 454.105469 198.816406 C 454.109375 198.578125 454.035156 198.144531 453.511719 197.945312 L 403.179688 178.730469 C 402.972656 178.648438 402.738281 178.648438 402.523438 178.730469 L 367.722656 192.015625 C 368.960938 192.460938 370.230469 192.941406 371.523438 193.464844 C 389.992188 200.894531 402.640625 194.644531 407.191406 191.644531 C 407.640625 191.351562 408.152344 191.207031 408.660156 191.207031 C 409.398438 191.207031 410.136719 191.515625 410.664062 192.109375 C 411.753906 193.339844 411.492188 195.238281 410.121094 196.136719 C 404.578125 199.769531 390.132812 206.742188 369.519531 198.445312 C 340.648438 186.820312 329.292969 196.792969 325.6875 201.757812 L 328.992188 203.761719 L 320.886719 216.832031 C 318.832031 220.140625 314.535156 221.246094 311.140625 219.332031 C 307.550781 217.3125 306.355469 212.714844 308.507812 209.207031 L 316.488281 196.183594 L 321.148438 199.007812 C 325.035156 193.640625 335.71875 183.769531 359.289062 189.488281 L 400.613281 173.710938 C 402.054688 173.160156 403.648438 173.160156 405.097656 173.710938 L 455.429688 192.929688 C 458.027344 193.921875 459.648438 196.425781 459.46875 199.234375 Z M 459.46875 199.234375 " fill-opacity="1" fill-rule="nonzero"/><g clip-path="url(#f278bff06a)"><path fill="#38b6ff" d="M 426.976562 221.15625 L 405 229.117188 C 404.304688 229.363281 403.582031 229.488281 402.855469 229.488281 C 402.128906 229.488281 401.402344 229.363281 400.714844 229.117188 L 377.960938 220.875 C 367.714844 256.316406 339.652344 284.945312 339.652344 284.945312 C 347.746094 294.4375 355.6875 306.582031 363.121094 320.085938 L 385.65625 368.699219 C 389.859375 379.484375 396.59375 396.023438 399.707031 406.140625 L 399.003906 354.570312 C 399.351562 346.933594 399.367188 308.429688 399.171875 291.539062 C 396.71875 290.292969 395.035156 287.75 395.035156 284.808594 C 395.035156 280.691406 398.332031 277.347656 402.429688 277.265625 C 406.523438 277.347656 409.820312 280.691406 409.820312 284.808594 C 409.820312 287.75 408.136719 290.292969 405.683594 291.539062 C 405.488281 308.429688 405.503906 346.933594 405.851562 354.570312 L 405.148438 406.140625 C 408.261719 396.019531 414.996094 379.480469 419.199219 368.699219 L 441.734375 320.085938 C 449.167969 306.582031 457.109375 294.4375 465.203125 284.945312 C 465.203125 284.945312 437.289062 256.46875 426.976562 221.15625 Z M 426.976562 221.15625 " fill-opacity="1" fill-rule="nonzero"/></g><path fill="#0cc0df" d="M 147.078125 562.039062 L 147.078125 569.140625 L 92.21875 569.140625 L 92.21875 491.566406 L 145.414062 491.566406 L 145.414062 498.667969 L 100.425781 498.667969 L 100.425781 526.25 L 140.539062 526.25 L 140.539062 533.242188 L 100.425781 533.242188 L 100.425781 562.039062 Z M 147.078125 562.039062 " fill-opacity="1" fill-rule="nonzero"/><path fill="#0cc0df" d="M 240.039062 562.039062 L 240.039062 569.140625 L 176.429688 569.140625 L 176.429688 563.488281 L 227.847656 498.667969 L 177.210938 498.667969 L 177.210938 491.566406 L 238.714844 491.566406 L 238.714844 497.21875 L 187.40625 562.039062 Z M 240.039062 562.039062 " fill-opacity="1" fill-rule="nonzero"/><path fill="#ff914d" d="M 338.757812 491.566406 L 338.757812 569.140625 L 332 569.140625 L 282.140625 506.199219 L 282.140625 569.140625 L 273.933594 569.140625 L 273.933594 491.566406 L 280.707031 491.566406 L 330.675781 554.503906 L 330.675781 491.566406 Z M 338.757812 491.566406 " fill-opacity="1" fill-rule="nonzero"/><path fill="#ff914d" d="M 415.664062 569.808594 C 407.976562 569.808594 401.003906 568.09375 394.757812 564.65625 C 388.519531 561.222656 383.648438 556.515625 380.140625 550.535156 C 376.632812 544.550781 374.878906 537.824219 374.878906 530.359375 C 374.878906 522.902344 376.632812 516.179688 380.140625 510.203125 C 383.648438 504.214844 388.519531 499.503906 394.757812 496.066406 C 401.003906 492.632812 407.976562 490.914062 415.664062 490.914062 C 423.34375 490.914062 430.265625 492.617188 436.433594 496.019531 C 442.605469 499.414062 447.460938 504.121094 451.003906 510.140625 C 454.550781 516.160156 456.328125 522.902344 456.328125 530.359375 C 456.328125 537.824219 454.550781 544.566406 451.003906 550.582031 C 447.460938 556.601562 442.605469 561.316406 436.433594 564.71875 C 430.265625 568.113281 423.34375 569.808594 415.664062 569.808594 Z M 415.664062 562.492188 C 421.789062 562.492188 427.324219 561.105469 432.277344 558.335938 C 437.226562 555.5625 441.101562 551.726562 443.90625 546.816406 C 446.714844 541.894531 448.121094 536.414062 448.121094 530.359375 C 448.121094 524.300781 446.714844 518.816406 443.90625 513.90625 C 441.101562 508.988281 437.226562 505.140625 432.277344 502.371094 C 427.324219 499.601562 421.789062 498.214844 415.664062 498.214844 C 409.53125 498.214844 403.96875 499.601562 398.976562 502.371094 C 393.996094 505.140625 390.082031 508.988281 387.238281 513.90625 C 384.394531 518.816406 382.972656 524.300781 382.972656 530.359375 C 382.972656 536.414062 384.394531 541.894531 387.238281 546.816406 C 390.082031 551.726562 393.996094 555.5625 398.976562 558.335938 C 403.96875 561.105469 409.53125 562.492188 415.664062 562.492188 Z M 415.664062 562.492188 " fill-opacity="1" fill-rule="nonzero"/><path fill="#ff914d" d="M 507.503906 498.667969 L 480.246094 498.667969 L 480.246094 491.566406 L 542.964844 491.566406 L 542.964844 498.667969 L 515.707031 498.667969 L 515.707031 569.140625 L 507.503906 569.140625 Z M 507.503906 498.667969 " fill-opacity="1" fill-rule="nonzero"/><path fill="#ff914d" d="M 628.621094 562.039062 L 628.621094 569.140625 L 573.765625 569.140625 L 573.765625 491.566406 L 626.957031 491.566406 L 626.957031 498.667969 L 581.96875 498.667969 L 581.96875 526.25 L 622.085938 526.25 L 622.085938 533.242188 L 581.96875 533.242188 L 581.96875 562.039062 Z M 628.621094 562.039062 " fill-opacity="1" fill-rule="nonzero"/><path fill="#ff914d" d="M 687.007812 569.808594 C 681.246094 569.808594 675.722656 568.886719 670.441406 567.039062 C 665.15625 565.191406 661.078125 562.753906 658.207031 559.722656 L 661.414062 553.402344 C 664.214844 556.214844 667.941406 558.488281 672.589844 560.21875 C 677.25 561.953125 682.054688 562.820312 687.007812 562.820312 C 693.949219 562.820312 699.152344 561.550781 702.621094 559.003906 C 706.097656 556.453125 707.835938 553.148438 707.835938 549.089844 C 707.835938 545.988281 706.890625 543.511719 705.003906 541.664062 C 703.121094 539.816406 700.820312 538.394531 698.089844 537.398438 C 695.359375 536.402344 691.554688 535.3125 686.679688 534.128906 C 680.847656 532.644531 676.191406 531.226562 672.714844 529.863281 C 669.238281 528.492188 666.261719 526.40625 663.796875 523.605469 C 661.324219 520.796875 660.089844 516.984375 660.089844 512.179688 C 660.089844 508.265625 661.121094 504.707031 663.1875 501.5 C 665.25 498.285156 668.425781 495.714844 672.714844 493.792969 C 677 491.875 682.320312 490.914062 688.671875 490.914062 C 693.101562 490.914062 697.441406 491.527344 701.6875 492.75 C 705.941406 493.964844 709.617188 495.640625 712.722656 497.777344 L 709.953125 504.316406 C 706.691406 502.179688 703.214844 500.578125 699.523438 499.507812 C 695.835938 498.429688 692.222656 497.886719 688.671875 497.886719 C 681.875 497.886719 676.753906 499.203125 673.324219 501.828125 C 669.886719 504.453125 668.171875 507.832031 668.171875 511.960938 C 668.171875 515.066406 669.109375 517.5625 670.988281 519.449219 C 672.875 521.328125 675.242188 522.765625 678.085938 523.761719 C 680.925781 524.757812 684.753906 525.847656 689.558594 527.03125 C 695.246094 528.429688 699.839844 529.816406 703.351562 531.1875 C 706.859375 532.554688 709.832031 534.625 712.273438 537.398438 C 714.707031 540.167969 715.929688 543.917969 715.929688 548.636719 C 715.929688 552.550781 714.875 556.117188 712.769531 559.332031 C 710.660156 562.550781 707.429688 565.101562 703.070312 566.992188 C 698.714844 568.871094 693.359375 569.808594 687.007812 569.808594 Z M 687.007812 569.808594 " fill-opacity="1" fill-rule="nonzero"/><g fill="#ffffff" fill-opacity="1"><g transform="translate(209.175594, 732.968191)"><g><path d="M 13.71875 0 L 13.71875 -81.4375 L 32.5 -81.4375 L 32.5 -13.328125 L 75.984375 -13.328125 L 75.984375 0 Z M 13.71875 0 "/></g></g></g><g fill="#ffffff" fill-opacity="1"><g transform="translate(287.503314, 732.968191)"><g><path d="M 39.171875 1.59375 C 28.296875 1.59375 19.628906 -1.707031 13.171875 -8.3125 C 6.710938 -14.914062 3.484375 -23.632812 3.484375 -34.46875 C 3.484375 -45.382812 6.722656 -54.109375 13.203125 -60.640625 C 19.679688 -67.179688 28.335938 -70.453125 39.171875 -70.453125 C 49.910156 -70.453125 58.53125 -67.179688 65.03125 -60.640625 C 71.53125 -54.109375 74.78125 -45.382812 74.78125 -34.46875 C 74.78125 -23.632812 71.53125 -14.914062 65.03125 -8.3125 C 58.53125 -1.707031 49.910156 1.59375 39.171875 1.59375 Z M 39.171875 -10.984375 C 49.578125 -10.984375 54.78125 -18.8125 54.78125 -34.46875 C 54.78125 -50.125 49.578125 -57.953125 39.171875 -57.953125 C 28.710938 -57.953125 23.484375 -50.125 23.484375 -34.46875 C 23.484375 -18.8125 28.710938 -10.984375 39.171875 -10.984375 Z M 39.171875 -10.984375 "/></g></g></g><g fill="#ffffff" fill-opacity="1"><g transform="translate(365.831035, 732.968191)"><g><path d="M 11.609375 21.203125 L 13.328125 7.8125 C 22.972656 11.613281 30.972656 13.515625 37.328125 13.515625 C 47.441406 13.515625 52.5 7.441406 52.5 -4.703125 L 52.5 -16.375 C 47.96875 -5.457031 40.75 0 30.84375 0 C 23.0625 0 16.757812 -3.140625 11.9375 -9.421875 C 7.113281 -15.710938 4.703125 -23.957031 4.703125 -34.15625 C 4.703125 -45.15625 7.375 -53.953125 12.71875 -60.546875 C 18.070312 -67.148438 25.21875 -70.453125 34.15625 -70.453125 C 41.175781 -70.453125 47.289062 -67.851562 52.5 -62.65625 L 54.015625 -68.9375 L 71.28125 -68.9375 L 71.28125 -8.5625 C 71.28125 2.851562 68.570312 11.578125 63.15625 17.609375 C 57.738281 23.640625 49.929688 26.65625 39.734375 26.65625 C 31.773438 26.65625 22.398438 24.835938 11.609375 21.203125 Z M 52.5 -28.5625 L 52.5 -49.515625 C 47.375 -53.742188 42.820312 -55.859375 38.84375 -55.859375 C 29.664062 -55.859375 25.078125 -49.191406 25.078125 -35.859375 C 25.078125 -23.585938 29.097656 -17.453125 37.140625 -17.453125 C 43.054688 -17.453125 48.175781 -21.15625 52.5 -28.5625 Z M 52.5 -28.5625 "/></g></g></g><g fill="#ffffff" fill-opacity="1"><g transform="translate(444.158767, 732.968191)"><g><path d="M 37.578125 0 L 37.578125 -56.375 L 12.5 -56.375 L 12.5 -68.9375 L 56.375 -68.9375 L 56.375 0 Z M 37.578125 -81.4375 L 37.578125 -100.234375 L 56.375 -100.234375 L 56.375 -81.4375 Z M 37.578125 -81.4375 "/></g></g></g><g fill="#ffffff" fill-opacity="1"><g transform="translate(522.486476, 732.968191)"><g><path d="M 9.015625 0 L 9.015625 -68.9375 L 27.796875 -68.9375 L 27.796875 -55.609375 C 31.691406 -65.503906 38.972656 -70.453125 49.640625 -70.453125 C 63.265625 -70.453125 70.078125 -62.664062 70.078125 -47.09375 L 70.078125 0 L 51.296875 0 L 51.296875 -43.671875 C 51.296875 -51.078125 48.671875 -54.78125 43.421875 -54.78125 C 37.578125 -54.78125 32.367188 -51.078125 27.796875 -43.671875 L 27.796875 0 Z M 9.015625 0 "/></g></g></g></svg>