<svg xmlns="http://www.w3.org/2000/svg" xmlns:xlink="http://www.w3.org/1999/xlink" width="1080" zoomAndPan="magnify" viewBox="0 0 810 809.999993" height="1080" preserveAspectRatio="xMidYMid meet" version="1.0"><path fill="#0cc0df" d="M 43.734375 122.445312 C 42.398438 122.425781 41.066406 122.472656 39.738281 122.585938 C 38.410156 122.699219 37.089844 122.878906 35.777344 123.121094 C 34.464844 123.367188 33.171875 123.675781 31.890625 124.046875 C 30.609375 124.417969 29.347656 124.855469 28.109375 125.351562 C 26.871094 125.851562 25.664062 126.40625 24.480469 127.023438 C 23.296875 127.640625 22.148438 128.316406 21.03125 129.046875 C 19.917969 129.777344 18.839844 130.5625 17.800781 131.402344 C 16.765625 132.238281 15.769531 133.128906 14.820312 134.0625 C 13.871094 135 12.96875 135.980469 12.117188 137.007812 C 11.265625 138.035156 10.464844 139.097656 9.71875 140.203125 C 8.96875 141.308594 8.28125 142.449219 7.644531 143.621094 C 7.011719 144.796875 6.4375 146 5.921875 147.230469 C 5.40625 148.460938 4.953125 149.714844 4.5625 150.988281 C 4.171875 152.265625 3.847656 153.554688 3.585938 154.863281 C 3.320312 156.171875 3.125 157.488281 2.992188 158.816406 C 2.859375 160.144531 2.792969 161.476562 2.792969 162.808594 C 2.792969 164.144531 2.859375 165.472656 2.992188 166.800781 C 3.125 168.128906 3.320312 169.445312 3.585938 170.753906 C 3.847656 172.0625 4.171875 173.355469 4.5625 174.628906 C 4.953125 175.90625 5.40625 177.160156 5.921875 178.390625 C 6.4375 179.621094 7.011719 180.824219 7.644531 181.996094 C 8.28125 183.167969 8.96875 184.308594 9.71875 185.414062 C 10.464844 186.519531 11.265625 187.585938 12.117188 188.613281 C 12.96875 189.636719 13.871094 190.617188 14.820312 191.554688 C 15.769531 192.492188 16.765625 193.378906 17.800781 194.21875 C 18.839844 195.054688 19.917969 195.839844 21.03125 196.570312 C 22.148438 197.300781 23.296875 197.976562 24.480469 198.59375 C 25.664062 199.210938 26.871094 199.769531 28.109375 200.265625 C 29.347656 200.765625 30.609375 201.199219 31.890625 201.570312 C 33.167969 201.945312 34.464844 202.253906 35.777344 202.496094 C 37.089844 202.742188 38.410156 202.917969 39.738281 203.03125 C 41.066406 203.144531 42.398438 203.191406 43.734375 203.171875 L 770.292969 203.171875 C 771.625 203.191406 772.957031 203.144531 774.285156 203.03125 C 775.617188 202.917969 776.9375 202.742188 778.25 202.496094 C 779.558594 202.253906 780.855469 201.945312 782.136719 201.570312 C 783.417969 201.199219 784.675781 200.765625 785.914062 200.265625 C 787.152344 199.769531 788.363281 199.210938 789.546875 198.59375 C 790.726562 197.976562 791.878906 197.300781 792.992188 196.570312 C 794.109375 195.839844 795.1875 195.054688 796.222656 194.21875 C 797.261719 193.378906 798.253906 192.492188 799.207031 191.554688 C 800.15625 190.617188 801.054688 189.636719 801.910156 188.613281 C 802.761719 187.585938 803.5625 186.519531 804.308594 185.414062 C 805.054688 184.308594 805.746094 183.167969 806.378906 181.996094 C 807.015625 180.824219 807.589844 179.621094 808.105469 178.390625 C 808.617188 177.160156 809.070312 175.90625 809.460938 174.628906 C 809.851562 173.355469 810.179688 172.0625 810.441406 170.753906 C 810.703125 169.445312 810.902344 168.128906 811.035156 166.800781 C 811.164062 165.472656 811.230469 164.144531 811.230469 162.808594 C 811.230469 161.476562 811.164062 160.144531 811.035156 158.816406 C 810.902344 157.488281 810.703125 156.171875 810.441406 154.863281 C 810.179688 153.554688 809.851562 152.265625 809.460938 150.988281 C 809.070312 149.714844 808.617188 148.460938 808.105469 147.230469 C 807.589844 146 807.015625 144.796875 806.378906 143.621094 C 805.746094 142.449219 805.054688 141.308594 804.308594 140.203125 C 803.5625 139.097656 802.761719 138.035156 801.910156 137.007812 C 801.058594 135.980469 800.15625 135 799.207031 134.0625 C 798.253906 133.128906 797.261719 132.238281 796.222656 131.402344 C 795.1875 130.5625 794.109375 129.777344 792.992188 129.046875 C 791.878906 128.316406 790.726562 127.640625 789.546875 127.023438 C 788.363281 126.40625 787.152344 125.851562 785.914062 125.351562 C 784.675781 124.855469 783.417969 124.417969 782.136719 124.046875 C 780.855469 123.675781 779.558594 123.367188 778.25 123.121094 C 776.9375 122.878906 775.617188 122.699219 774.285156 122.585938 C 772.957031 122.472656 771.625 122.425781 770.292969 122.445312 Z M 43.734375 364.632812 C 42.398438 364.613281 41.066406 364.660156 39.738281 364.773438 C 38.410156 364.886719 37.089844 365.066406 35.777344 365.308594 C 34.464844 365.554688 33.171875 365.859375 31.890625 366.234375 C 30.609375 366.605469 29.347656 367.042969 28.109375 367.539062 C 26.875 368.035156 25.664062 368.59375 24.480469 369.210938 C 23.296875 369.828125 22.148438 370.503906 21.03125 371.234375 C 19.917969 371.964844 18.839844 372.75 17.804688 373.589844 C 16.765625 374.425781 15.769531 375.3125 14.820312 376.25 C 13.871094 377.1875 12.96875 378.167969 12.117188 379.195312 C 11.265625 380.21875 10.464844 381.285156 9.71875 382.390625 C 8.96875 383.496094 8.28125 384.636719 7.644531 385.808594 C 7.011719 386.984375 6.4375 388.183594 5.921875 389.414062 C 5.40625 390.648438 4.957031 391.898438 4.566406 393.175781 C 4.175781 394.449219 3.847656 395.742188 3.585938 397.050781 C 3.320312 398.359375 3.125 399.675781 2.992188 401.003906 C 2.859375 402.332031 2.796875 403.660156 2.796875 404.996094 C 2.796875 406.328125 2.859375 407.660156 2.992188 408.988281 C 3.125 410.316406 3.320312 411.632812 3.585938 412.941406 C 3.847656 414.25 4.175781 415.539062 4.566406 416.816406 C 4.957031 418.09375 5.40625 419.34375 5.921875 420.574219 C 6.4375 421.804688 7.011719 423.007812 7.644531 424.183594 C 8.28125 425.355469 8.972656 426.496094 9.71875 427.601562 C 10.464844 428.707031 11.265625 429.769531 12.117188 430.796875 C 12.96875 431.824219 13.871094 432.804688 14.820312 433.742188 C 15.769531 434.679688 16.765625 435.566406 17.804688 436.402344 C 18.839844 437.242188 19.917969 438.027344 21.03125 438.757812 C 22.148438 439.488281 23.296875 440.164062 24.480469 440.78125 C 25.664062 441.398438 26.875 441.957031 28.109375 442.453125 C 29.347656 442.949219 30.609375 443.386719 31.890625 443.757812 C 33.171875 444.128906 34.464844 444.4375 35.777344 444.683594 C 37.089844 444.925781 38.410156 445.105469 39.738281 445.21875 C 41.066406 445.332031 42.398438 445.378906 43.734375 445.359375 L 770.292969 445.359375 C 771.625 445.378906 772.957031 445.332031 774.285156 445.21875 C 775.617188 445.105469 776.9375 444.925781 778.25 444.683594 C 779.558594 444.4375 780.855469 444.128906 782.136719 443.757812 C 783.417969 443.386719 784.675781 442.949219 785.914062 442.453125 C 787.152344 441.957031 788.363281 441.398438 789.546875 440.78125 C 790.726562 440.164062 791.878906 439.488281 792.992188 438.757812 C 794.109375 438.027344 795.183594 437.242188 796.222656 436.402344 C 797.261719 435.566406 798.253906 434.679688 799.203125 433.742188 C 800.15625 432.804688 801.054688 431.824219 801.910156 430.796875 C 802.761719 429.769531 803.5625 428.707031 804.308594 427.601562 C 805.054688 426.496094 805.746094 425.355469 806.378906 424.183594 C 807.015625 423.007812 807.589844 421.804688 808.101562 420.574219 C 808.617188 419.34375 809.070312 418.09375 809.460938 416.816406 C 809.851562 415.539062 810.179688 414.25 810.441406 412.941406 C 810.703125 411.632812 810.902344 410.316406 811.03125 408.988281 C 811.164062 407.660156 811.230469 406.328125 811.230469 404.996094 C 811.230469 403.660156 811.164062 402.332031 811.03125 401.003906 C 810.902344 399.675781 810.703125 398.359375 810.441406 397.050781 C 810.179688 395.742188 809.851562 394.449219 809.460938 393.175781 C 809.070312 391.898438 808.617188 390.648438 808.101562 389.414062 C 807.589844 388.183594 807.015625 386.984375 806.378906 385.808594 C 805.746094 384.636719 805.054688 383.496094 804.308594 382.390625 C 803.5625 381.285156 802.761719 380.21875 801.910156 379.195312 C 801.054688 378.167969 800.15625 377.1875 799.203125 376.25 C 798.253906 375.3125 797.261719 374.425781 796.222656 373.589844 C 795.183594 372.75 794.109375 371.964844 792.992188 371.234375 C 791.878906 370.503906 790.726562 369.828125 789.546875 369.210938 C 788.363281 368.59375 787.152344 368.035156 785.914062 367.539062 C 784.675781 367.042969 783.417969 366.605469 782.136719 366.234375 C 780.855469 365.859375 779.558594 365.554688 778.25 365.308594 C 776.9375 365.066406 775.617188 364.886719 774.285156 364.773438 C 772.957031 364.660156 771.625 364.613281 770.292969 364.632812 Z M 43.734375 606.816406 C 42.398438 606.800781 41.066406 606.847656 39.738281 606.960938 C 38.410156 607.070312 37.089844 607.25 35.777344 607.496094 C 34.464844 607.738281 33.167969 608.046875 31.890625 608.417969 C 30.609375 608.792969 29.347656 609.226562 28.109375 609.726562 C 26.871094 610.222656 25.664062 610.78125 24.480469 611.398438 C 23.296875 612.015625 22.148438 612.6875 21.03125 613.417969 C 19.917969 614.152344 18.839844 614.9375 17.800781 615.773438 C 16.765625 616.613281 15.769531 617.5 14.820312 618.4375 C 13.871094 619.371094 12.96875 620.355469 12.117188 621.378906 C 11.261719 622.40625 10.464844 623.472656 9.714844 624.578125 C 8.96875 625.683594 8.277344 626.820312 7.644531 627.996094 C 7.011719 629.167969 6.4375 630.371094 5.921875 631.601562 C 5.40625 632.832031 4.953125 634.085938 4.5625 635.359375 C 4.171875 636.636719 3.847656 637.929688 3.582031 639.238281 C 3.320312 640.542969 3.125 641.863281 2.992188 643.191406 C 2.859375 644.515625 2.792969 645.847656 2.792969 647.183594 C 2.792969 648.515625 2.859375 649.847656 2.992188 651.175781 C 3.125 652.5 3.320312 653.820312 3.582031 655.128906 C 3.847656 656.433594 4.171875 657.726562 4.5625 659.003906 C 4.953125 660.277344 5.40625 661.53125 5.921875 662.761719 C 6.4375 663.992188 7.011719 665.195312 7.644531 666.367188 C 8.277344 667.542969 8.96875 668.683594 9.714844 669.789062 C 10.464844 670.894531 11.261719 671.957031 12.117188 672.984375 C 12.96875 674.011719 13.871094 674.992188 14.820312 675.929688 C 15.769531 676.863281 16.765625 677.753906 17.800781 678.589844 C 18.839844 679.429688 19.917969 680.214844 21.03125 680.945312 C 22.148438 681.675781 23.296875 682.351562 24.480469 682.96875 C 25.664062 683.585938 26.871094 684.140625 28.109375 684.640625 C 29.347656 685.136719 30.609375 685.570312 31.890625 685.945312 C 33.167969 686.316406 34.464844 686.625 35.777344 686.871094 C 37.089844 687.113281 38.410156 687.292969 39.738281 687.40625 C 41.066406 687.519531 42.398438 687.566406 43.734375 687.546875 L 770.292969 687.546875 C 771.625 687.566406 772.957031 687.519531 774.289062 687.40625 C 775.617188 687.292969 776.9375 687.113281 778.25 686.871094 C 779.558594 686.625 780.855469 686.316406 782.136719 685.945312 C 783.417969 685.570312 784.675781 685.136719 785.914062 684.640625 C 787.152344 684.140625 788.363281 683.585938 789.546875 682.96875 C 790.730469 682.351562 791.878906 681.675781 792.992188 680.945312 C 794.109375 680.214844 795.1875 679.429688 796.222656 678.589844 C 797.261719 677.753906 798.253906 676.863281 799.207031 675.929688 C 800.15625 674.992188 801.058594 674.011719 801.910156 672.984375 C 802.761719 671.957031 803.5625 670.894531 804.308594 669.789062 C 805.054688 668.683594 805.746094 667.542969 806.382812 666.367188 C 807.015625 665.195312 807.589844 663.992188 808.105469 662.761719 C 808.617188 661.53125 809.070312 660.277344 809.460938 659.003906 C 809.851562 657.726562 810.179688 656.433594 810.441406 655.128906 C 810.703125 653.820312 810.902344 652.5 811.035156 651.175781 C 811.167969 649.847656 811.230469 648.515625 811.230469 647.183594 C 811.230469 645.847656 811.167969 644.515625 811.035156 643.191406 C 810.902344 641.863281 810.703125 640.542969 810.441406 639.238281 C 810.179688 637.929688 809.851562 636.636719 809.460938 635.359375 C 809.070312 634.085938 808.617188 632.832031 808.105469 631.601562 C 807.589844 630.371094 807.015625 629.167969 806.382812 627.996094 C 805.746094 626.820312 805.054688 625.683594 804.308594 624.578125 C 803.5625 623.472656 802.761719 622.40625 801.910156 621.378906 C 801.058594 620.355469 800.15625 619.371094 799.207031 618.4375 C 798.253906 617.5 797.261719 616.613281 796.222656 615.773438 C 795.1875 614.9375 794.109375 614.152344 792.992188 613.417969 C 791.878906 612.6875 790.730469 612.015625 789.546875 611.398438 C 788.363281 610.78125 787.152344 610.222656 785.914062 609.726562 C 784.675781 609.226562 783.417969 608.792969 782.136719 608.417969 C 780.855469 608.046875 779.558594 607.738281 778.25 607.496094 C 776.9375 607.25 775.617188 607.070312 774.289062 606.960938 C 772.957031 606.847656 771.625 606.800781 770.292969 606.816406 Z M 43.734375 606.816406 " fill-opacity="1" fill-rule="nonzero"/></svg>